<svg id="Layer_1" data-name="Layer 1" xmlns="http://www.w3.org/2000/svg" viewBox="0 0 852.09 562.88">
    <title>
        agrinar-logo
    </title>
    <path d="M457.36,166c78.56.27,158.34,45,169.85,100.86C558.06,269.84,476.27,217.05,457.36,166" style="fill-rule:evenodd;fill:#a6ce38"/>
    <path d="M819.76,39.24c-119.4,13-200.73,126.06-178.9,227.67C761.29,257,839.78,136.54,819.76,39.24" style="fill:#00a651;fill-rule:evenodd"/>
    <path d="M746.66,396h35.71V337.74a41.9,41.9,0,0,1,.71-8c2.35-11,11.28-18.09,24.43-18.09a53.55,53.55,0,0,1,9.63.94V279a35.32,35.32,0,0,0-7.52-.71c-11.28,0-25.14,7-31,24h-.94l-1.41-21.15H745.72c.7,9.87.94,20.91.94,37.83Zm-63-41.82a25.47,25.47,0,0,1-.7,6.1,19.74,19.74,0,0,1-18.56,13.16c-8,0-14.1-4.47-14.1-13.63,0-13.63,14.57-18.09,33.36-18.09Zm34.54-26.08c0-27.25-12-49.81-50.28-49.81-20.91,0-36.65,5.87-44.64,10.34l6.58,23c7.52-4.7,20-8.69,31.72-8.69,17.62,0,20.91,8.69,20.91,15v1.41c-40.64,0-67.43,14.1-67.43,43.94,0,18.32,13.86,35.24,37.12,35.24,13.63,0,25.37-4.93,32.89-14.1h.71L687.92,396h32.19c-1.41-6.34-1.88-16.91-1.88-27.72ZM484.93,396h35.71V329.74c0-3.29.23-6.58,1.17-8.93,2.58-6.58,8.46-13.39,18.33-13.39,12.92,0,18.09,10.1,18.09,24.9V396h35.71V328.1c0-33.83-17.62-49.57-41.11-49.57-19.27,0-30.78,11-35.48,18.56h-.71l-1.64-16H484c.47,10.34.94,22.32.94,36.65ZM438.65,231.3c-11.51,0-19,7.75-19,17.86,0,9.87,7.28,17.86,18.56,17.86,12,0,19.27-8,19.27-17.86C457.21,239.06,450.16,231.3,438.65,231.3ZM456.27,396V281.11H420.56V396Zm-125,0H367V337.74a42,42,0,0,1,.7-8c2.35-11,11.28-18.09,24.43-18.09a53.53,53.53,0,0,1,9.63.94V279a35.3,35.3,0,0,0-7.52-.71c-11.28,0-25.14,7-31,24h-.94l-1.41-21.15H330.34c.71,9.87.94,20.91.94,37.83ZM266.9,344.78a32.8,32.8,0,0,1-1.17,9.64,19.52,19.52,0,0,1-19,14.33c-14.8,0-23.26-13.39-23.26-30.54,0-20.91,10.34-32.66,23.5-32.66,9.87,0,16.68,6.34,19.26,15.74a31.17,31.17,0,0,1,.7,6.58Zm35.71-29.37c0-17.15.47-26.78.94-34.3h-31L271.37,295h-.47c-5.88-9.64-15.74-16.45-31.48-16.45-28.43,0-52.16,23.49-52.16,60.62,0,32.89,20.2,55.91,48.63,55.91,13.16,0,24.2-5.4,31-14.8h.47v7.28c0,21.38-12.92,30.31-29.84,30.31a69.81,69.81,0,0,1-33.36-8.7l-7,27.26c10.34,5.64,26.08,8.69,41.35,8.69,16.92,0,34.07-3.29,46.52-14.1,13.16-11.51,17.62-29.61,17.62-51.69ZM86.23,328.57,95.63,295c2.58-9.16,4.93-21.15,7.28-30.54h.47c2.35,9.4,5.17,21.14,8,30.54l9.87,33.59Zm40.18,26.78L138.62,396h38.77L128.05,237.65h-47L32.9,396H69.78l11.28-40.65Z" style="fill:#231f20"/>
    <path d="M736.48,529.84V465.75H749l26.37,42.95V465.75h12v64.08h-13l-26-42.13v42.13Zm-77.61-25.42L650,480.7l-8.65,23.71Zm23.72,25.42h-14l-5.54-14.59h-25.7L632,529.84H618.32l24.88-64.08h13.71Zm-138.33,0V476.58h-19V465.75h50.83v10.83H557.23v53.25ZM419.76,509.07l12.62-1.25c.76,4.22,2.28,7.31,4.59,9.29s5.43,3,9.35,3q6.22,0,9.38-2.64a7.88,7.88,0,0,0,3.16-6.18,5.89,5.89,0,0,0-1.33-3.88,10.46,10.46,0,0,0-4.64-2.76c-1.51-.53-4.94-1.46-10.31-2.8q-10.36-2.6-14.54-6.37a17,17,0,0,1-3.12-22.12,17.36,17.36,0,0,1,8-6.51,31.73,31.73,0,0,1,12.57-2.24q12,0,18.09,5.34c4.06,3.56,6.18,8.3,6.38,14.26l-13,.45q-.83-5-3.54-7.13c-1.8-1.44-4.52-2.18-8.13-2.18s-6.65.78-8.76,2.33a4.73,4.73,0,0,0-2,4,4.91,4.91,0,0,0,1.92,3.89q2.44,2.08,11.86,4.31c6.28,1.48,10.92,3,13.92,4.61a17.94,17.94,0,0,1,7.07,6.52,19.1,19.1,0,0,1,2.55,10.2,18.87,18.87,0,0,1-3.06,10.33,18.31,18.31,0,0,1-8.65,7.15A36.2,36.2,0,0,1,446.19,531q-12.15,0-18.66-5.61T419.76,509.07Zm-68.9,20.77V465.75h13v64.08Zm-111,0V465.75h13v28.38L279,465.75h17.39l-24.18,25,25.43,39.13H280.9l-17.63-30.09-10.42,10.7v19.38Zm-77.79-25.42-8.9-23.71-8.65,23.71Zm23.72,25.42h-14l-5.53-14.59h-25.7l-5.33,14.59H121.53l24.88-64.08h13.71ZM41,476.58v18.26H48c5.09,0,8.47-.34,10.19-1a8.34,8.34,0,0,0,4-3.16,8.66,8.66,0,0,0,1.46-5,8.37,8.37,0,0,0-2-5.79A8.94,8.94,0,0,0,56.49,477a62.81,62.81,0,0,0-9.28-.43ZM28,529.84V465.75H48.76q11.79,0,15.37,1A16.84,16.84,0,0,1,73.35,473q3.71,4.83,3.71,12.48a21.05,21.05,0,0,1-2.13,9.92,17.75,17.75,0,0,1-5.43,6.32,18.83,18.83,0,0,1-6.7,3,73.45,73.45,0,0,1-13.4.92H41v24.17Z" style="fill:#00a651"/>
    <path d="M736.48,529.84V465.75H749l26.37,42.95V465.75h12v64.08h-13l-26-42.13v42.13Zm-77.61-25.42L650,480.7l-8.65,23.71Zm23.72,25.42h-14l-5.54-14.59h-25.7L632,529.84H618.32l24.88-64.08h13.71Zm-138.33,0V476.58h-19V465.75h50.83v10.83H557.23v53.25ZM419.76,509.07l12.62-1.25c.76,4.22,2.28,7.31,4.59,9.29s5.43,3,9.35,3q6.22,0,9.38-2.64a7.88,7.88,0,0,0,3.16-6.18,5.89,5.89,0,0,0-1.33-3.88,10.46,10.46,0,0,0-4.64-2.76c-1.51-.53-4.94-1.46-10.31-2.8q-10.36-2.6-14.54-6.37a17,17,0,0,1-3.12-22.12,17.36,17.36,0,0,1,8-6.51,31.73,31.73,0,0,1,12.57-2.24q12,0,18.09,5.34c4.06,3.56,6.18,8.3,6.38,14.26l-13,.45q-.83-5-3.54-7.13c-1.8-1.44-4.52-2.18-8.13-2.18s-6.65.78-8.76,2.33a4.73,4.73,0,0,0-2,4,4.91,4.91,0,0,0,1.92,3.89q2.44,2.08,11.86,4.31c6.28,1.48,10.92,3,13.92,4.61a17.94,17.94,0,0,1,7.07,6.52,19.1,19.1,0,0,1,2.55,10.2,18.87,18.87,0,0,1-3.06,10.33,18.31,18.31,0,0,1-8.65,7.15A36.2,36.2,0,0,1,446.19,531q-12.15,0-18.66-5.61T419.76,509.07Zm-68.9,20.77V465.75h13v64.08Zm-111,0V465.75h13v28.38L279,465.75h17.39l-24.18,25,25.43,39.13H280.9l-17.63-30.09-10.42,10.7v19.38Zm-77.79-25.42-8.9-23.71-8.65,23.71Zm23.72,25.42h-14l-5.53-14.59h-25.7l-5.33,14.59H121.53l24.88-64.08h13.71ZM41,476.58v18.26H48c5.09,0,8.47-.34,10.19-1a8.34,8.34,0,0,0,4-3.16,8.66,8.66,0,0,0,1.46-5,8.37,8.37,0,0,0-2-5.79A8.94,8.94,0,0,0,56.49,477a62.81,62.81,0,0,0-9.28-.43ZM28,529.84V465.75H48.76q11.79,0,15.37,1A16.84,16.84,0,0,1,73.35,473q3.71,4.83,3.71,12.48a21.05,21.05,0,0,1-2.13,9.92,17.75,17.75,0,0,1-5.43,6.32,18.83,18.83,0,0,1-6.7,3,73.45,73.45,0,0,1-13.4.92H41v24.17Z" style="fill:none;stroke:#00a651;stroke-miterlimit:2.61;stroke-width:.22px"/>
</svg>
