<svg id="Layer_1" data-name="Layer 1" xmlns="http://www.w3.org/2000/svg" viewBox="0 0 749.4 741.07"><defs><style>.cls-1{fill:#00a0dc;stroke:#303188;stroke-miterlimit:10;stroke-width:10px;}.cls-2{fill:#fff;}.cls-3{fill:#303188;}.cls-4{fill:#0095da;}.cls-5{fill:#3e327a;}.cls-6{fill:#39b54a;}.cls-7{fill:#059f4a;}</style></defs><title>agrowmark-logo</title><ellipse class="cls-1" cx="374.7" cy="370.54" rx="338.39" ry="336.3"/><path class="cls-2" d="M113.36,518.95l7.8-4.94,11.34,17.9-16,10.12A43.4,43.4,0,0,1,106,536a36.55,36.55,0,0,1-7.2-8.57q-4.23-6.68-4.61-12.33a18.43,18.43,0,0,1,2.65-10.81,26.37,26.37,0,0,1,8.87-8.86A25.54,25.54,0,0,1,118,491.16a19.4,19.4,0,0,1,11.59,3.05q4.23,2.66,8.31,9.11,3.93,6.22,4.76,10a14.3,14.3,0,0,1-.25,7.33,18.35,18.35,0,0,1-4.06,6.85l-9.07-9.91a7.17,7.17,0,0,0,1.77-4.4,8.66,8.66,0,0,0-1.54-4.92,9,9,0,0,0-6.49-4.4q-4.08-.59-9.81,3-6.09,3.85-7.25,7.8a9.52,9.52,0,0,0,1.43,8,14.32,14.32,0,0,0,2.91,3.35,23.63,23.63,0,0,0,4.48,2.83l3.53-2.23Z"/><path class="cls-2" d="M139.48,528.68l7.27,9L142.66,541a12.56,12.56,0,0,1,5.82-.3,7.24,7.24,0,0,1,3.76,2.59,13,13,0,0,1,2.44,5.7l-9.22,2.57a9.7,9.7,0,0,0-1.47-3.25,4.25,4.25,0,0,0-3.92-1.66q-3.39.29-9.38,5.16l-8.37,6.79-7.8-9.61Z"/><path class="cls-2" d="M141.14,556.83a16.09,16.09,0,0,1,12.08-5.08q6.88.13,12.86,6.1,6.84,6.82,6.37,14.27a17.51,17.51,0,0,1-17.11,15.79q-6.83-.12-13-6.26-5.49-5.47-6.09-11.64A15.8,15.8,0,0,1,141.14,556.83Zm8.76,8.7q-3,3-3.26,5.73a5.7,5.7,0,0,0,6.17,6.2q2.64-.23,5.81-3.4,3-3,3.17-5.62a5.37,5.37,0,0,0-1.58-4.46,5.58,5.58,0,0,0-4.62-1.68Q152.9,562.54,149.91,565.54Z"/><path class="cls-2" d="M173.26,567.78l9.55,7.13-8,19.3,17.34-12.32,8.92,6.66-6.7,20.33,16.3-13.16,9.49,7.08-28.73,18.67-8.79-6.56,6.36-19.4L172.4,607.26l-8.83-6.59Z"/><path class="cls-2" d="M227.32,606.92l10.92,4.76-3.36,20.62,14.06-16,10.21,4.44-1.87,21.32,12.85-16.54L281,630.3,257.31,655l-10.05-4.38L249,630.33l-13.49,15.22-10.1-4.4Z"/><path class="cls-2" d="M279.35,628.26l11.79,3.58-9.35,30.76L270,659Zm3.56-11.7,11.79,3.58-2.44,8-11.79-3.58Z"/><path class="cls-2" d="M312.19,624.39l-2.72,11.92,6.61,1.51-2,8.8-6.61-1.51-2.54,11.1a6.13,6.13,0,0,0-.22,2.74,2.26,2.26,0,0,0,1.84,1.47,13.49,13.49,0,0,0,3.89.08l-1,8.49a40.11,40.11,0,0,1-8.55-.93q-4.49-1-6.35-2.66a7.19,7.19,0,0,1-2.35-4.21q-.48-2.58.72-7.82l2.52-11-4.43-1,2-8.8,4.43,1,1.31-5.75Z"/><path class="cls-2" d="M317.91,626l12.23,1.52-2,16.22a16.64,16.64,0,0,1,5.42-3.08,14.18,14.18,0,0,1,6-.39,10.37,10.37,0,0,1,7.48,4q2.49,3.39,1.71,9.67l-2.52,20.28-12.29-1.53,2.18-17.55q.37-3-.58-4.39a4,4,0,0,0-3-1.63,4.48,4.48,0,0,0-3.81,1.23q-1.59,1.51-2.13,5.87l-1.9,15.32-12.23-1.52Z"/><path class="cls-2" d="M399,655l12.24,2.81a22.15,22.15,0,0,1-3.23,8.69,16.55,16.55,0,0,1-6.1,5.54,24.18,24.18,0,0,1-9.68,2.39,28.52,28.52,0,0,1-11.94-1.29,18.73,18.73,0,0,1-8.4-6.84q-3.68-5.06-4.24-13.3-.75-11,4.69-17.29t16.13-7q8.37-.57,13.38,2.49t7.82,9.91l-11.9,3.51a10.39,10.39,0,0,0-1.53-2.87,7.91,7.91,0,0,0-3-2.22,8.66,8.66,0,0,0-10.65,3.63q-1.68,2.9-1.28,8.85.5,7.36,2.92,9.94a8.84,8.84,0,0,0,12.25-.31A13.66,13.66,0,0,0,399,655Z"/><path class="cls-2" d="M410.87,656a16.08,16.08,0,0,1,2.63-12.83q4-5.61,12.3-7.17,9.49-1.79,15.38,2.8a17.51,17.51,0,0,1,3.37,23q-4,5.57-12.5,7.18-7.62,1.44-13-1.55A15.8,15.8,0,0,1,410.87,656ZM423,653.64q.8,4.22,2.89,5.92a5.7,5.7,0,0,0,8.6-1.59q1.31-2.31.48-6.71-.77-4.11-2.85-5.79a5.37,5.37,0,0,0-4.57-1.22,5.58,5.58,0,0,0-4,2.86Q422.21,649.48,423,653.64Z"/><path class="cls-2" d="M443,633.21l10.91-3.56,1.63,5a17.09,17.09,0,0,1,3.52-6,13.72,13.72,0,0,1,5.67-3.3,10.52,10.52,0,0,1,8.56.4q3.69,2,5.67,8l6.35,19.42-11.77,3.85-5.49-16.8q-.94-2.88-2.4-3.72a4,4,0,0,0-3.38-.22,4.48,4.48,0,0,0-2.93,2.74q-.8,2,.57,6.22l4.8,14.68L453,663.77Z"/><path class="cls-2" d="M489.77,616l5.38-2.35,3.61,8.27-5.38,2.35,9.25,21.2-11.32,4.94-9.25-21.2-4.22,1.84-3.61-8.27,4.22-1.84-.58-1.33a24.59,24.59,0,0,1-1.34-4.14,8.68,8.68,0,0,1-.09-4.17,8.2,8.2,0,0,1,2-3.53,16,16,0,0,1,5.28-3.31,84,84,0,0,1,8.93-3.07l1.73,7.37a23,23,0,0,0-3.42,1.1,4,4,0,0,0-2,1.47,3.09,3.09,0,0,0-.24,2A16.06,16.06,0,0,0,489.77,616Z"/><path class="cls-2" d="M490.75,602l10.95-5.66,3.85,7.45-10.95,5.66Zm5.62,10.87,10.95-5.66,14.76,28.56-10.95,5.66Z"/><path class="cls-2" d="M532,577.71l23.87,37.41-9.72,6.2-2.56-4a15.52,15.52,0,0,1-1.53,5.82,12.62,12.62,0,0,1-4.25,4.37,11.46,11.46,0,0,1-11.15,1.19,20.76,20.76,0,0,1-9.45-8.37q-4.3-6.74-3.35-12.37a12.54,12.54,0,0,1,5.93-8.81,13.57,13.57,0,0,1,4.92-2,11.88,11.88,0,0,1,5.07.21l-8.27-13Zm4.76,30.43q-2-3.19-4.39-3.9a5.12,5.12,0,0,0-4.42.61,4.47,4.47,0,0,0-2.08,3.44q-.26,2.29,2,5.83,2.12,3.32,4.36,4.06a4.61,4.61,0,0,0,4.11-.45,5,5,0,0,0,2.32-3.67Q539,611.66,536.79,608.14Z"/><path class="cls-2" d="M579.06,579.56,560,595.26a8,8,0,0,0,4,2.39A5.84,5.84,0,0,0,569,596.3a7,7,0,0,0,2.09-2.9,8.12,8.12,0,0,0,.37-2.93l10.08-6.85a17.38,17.38,0,0,1-.77,9.64q-1.7,4.13-7.38,8.8-4.93,4.06-8.9,5a14.76,14.76,0,0,1-8.32-.56,17.27,17.27,0,0,1-7.72-5.58,16.19,16.19,0,0,1-4-12.49q.76-6.67,7.33-12.08Q557,572,561.45,571a14.11,14.11,0,0,1,8.55.8,22.13,22.13,0,0,1,8.18,6.64ZM565.63,583q-2.55-2.53-4.74-2.73a6,6,0,0,0-6.29,6.2,8.54,8.54,0,0,0,1.65,4.25Z"/><path class="cls-2" d="M566.15,565.33l7.91-8.31,3.79,3.61a17.08,17.08,0,0,1,.27-6.93,13.71,13.71,0,0,1,3.43-5.6,10.52,10.52,0,0,1,7.73-3.7q4.2,0,8.8,4.39l14.8,14.09-8.54,9-12.8-12.19q-2.19-2.09-3.87-2.14a4,4,0,0,0-3.08,1.41,4.48,4.48,0,0,0-1.28,3.8q.27,2.18,3.45,5.2l11.18,10.65-8.5,8.92Z"/><path class="cls-2" d="M620.12,532.55l8.07-8.6a16.41,16.41,0,0,1,3.19,6.34,14.76,14.76,0,0,1,0,7,22.17,22.17,0,0,1-4,7.89,32.19,32.19,0,0,1-5.86,6.26,14.91,14.91,0,0,1-6,2.85,15.58,15.58,0,0,1-6.31.09,17.62,17.62,0,0,1-6.94-3.44,18,18,0,0,1-5.61-6.29,15,15,0,0,1-1.45-5.31,15.64,15.64,0,0,1,.35-5.25,24.52,24.52,0,0,1,4.33-8.29q4.7-6.31,9.43-7.94a14.84,14.84,0,0,1,10.07.27l-5.69,10.22a5.37,5.37,0,0,0-3.67-.26,6.44,6.44,0,0,0-3.14,2.47,6.23,6.23,0,0,0-1.2,5.28q.63,2.83,4.19,5.48,3.17,2.37,5.94,2.09a6.19,6.19,0,0,0,4.51-2.61,6.58,6.58,0,0,0,1.44-4A7.4,7.4,0,0,0,620.12,532.55Z"/><path class="cls-2" d="M645.19,490.7l-12.27,21.44a8,8,0,0,0,4.63.8,5.84,5.84,0,0,0,4.13-3,7,7,0,0,0,.93-3.45,8.13,8.13,0,0,0-.69-2.87l7-10a17.39,17.39,0,0,1,2.69,9.28q-.13,4.46-3.78,10.85-3.17,5.54-6.56,7.83a14.75,14.75,0,0,1-8,2.43,17.26,17.26,0,0,1-9.2-2.49,16.19,16.19,0,0,1-8.19-10.25q-1.65-6.51,2.58-13.89,3.43-6,7.23-8.42a14.11,14.11,0,0,1,8.28-2.27A22.13,22.13,0,0,1,644,490Zm-11.35,7.94q-3.28-1.46-5.4-.87a6,6,0,0,0-3.69,8,8.54,8.54,0,0,0,3.05,3.39Z"/><path class="cls-2" d="M374.7,614.54a244.65,244.65,0,0,1-173.59-71.46,242.95,242.95,0,0,1,0-345.08,246.57,246.57,0,0,1,347.18,0,242.95,242.95,0,0,1,0,345.08A244.66,244.66,0,0,1,374.7,614.54Z"/><path class="cls-3" d="M374.7,129c134.21,0,243,108.12,243,241.5S508.9,612,374.7,612s-243-108.12-243-241.5S240.49,129,374.7,129m0-5a248.07,248.07,0,0,0-228.5,150.54,245.33,245.33,0,0,0,53.15,270.27A248.56,248.56,0,0,0,603.2,466.5a245.33,245.33,0,0,0-53.15-270.27A248,248,0,0,0,374.7,124Z"/><path class="cls-2" d="M142.73,237.83l-9.34,18.69,7.16,6.82-8.4,16.81L90.93,234.53l9-18,61.23,5.58-8.61,17.24ZM130,235.71l-21.35-3.32,15.51,15Z"/><path class="cls-2" d="M166.4,185.36l-9-7.86,18.76-21.36,18.35,16.11a59.09,59.09,0,0,1-4.05,15.66,50.82,50.82,0,0,1-8.37,12.46q-7,8-14,10.69a24.23,24.23,0,0,1-14.61,1,33,33,0,0,1-14.28-7.65,31.93,31.93,0,0,1-9.6-13.78,25.67,25.67,0,0,1-.14-15.8q1.91-6.38,8.66-14.07,6.51-7.42,11-10a19.22,19.22,0,0,1,9.37-2.59,23.39,23.39,0,0,1,10.09,2.4l-9.42,15.35a9.28,9.28,0,0,0-6.18-.48,12,12,0,0,0-5.7,3.89,12.26,12.26,0,0,0-3.33,9.92q.67,5.37,7.24,11.14,7,6.13,12.38,6t9.68-5a20,20,0,0,0,3.24-5,32.35,32.35,0,0,0,2-6.76l-4.05-3.56Z"/><path class="cls-2" d="M207.06,172.8l-32.16-47.38,25.37-17.22q7.06-4.79,11.58-6.16a13.85,13.85,0,0,1,8.94.23,17,17,0,0,1,10.36,14.12,16.21,16.21,0,0,1-1.66,7.9,22.8,22.8,0,0,1-4.07,5.5,18.69,18.69,0,0,1,5.15-.94,18.18,18.18,0,0,1,4.13.84,22.48,22.48,0,0,1,4.13,1.5l16.69,8.73-17.2,11.67-18-9a13.4,13.4,0,0,0-5.23-1.78,7.94,7.94,0,0,0-4.48,1.43l-1.34.91,13.05,19.23Zm-3.84-38.56,6.42-4.36a28.72,28.72,0,0,0,3.59-3.38,4.89,4.89,0,0,0,1.46-3.16,5.63,5.63,0,0,0-4.81-5.89q-2.35-.2-6.51,2.63l-6.69,4.54Z"/><path class="cls-2" d="M245,113.69q-4.85-13.16.07-23.3t18.52-15.16q13.95-5.14,24.15-.72t15,17.39q3.47,9.42,2.4,16.66a24.56,24.56,0,0,1-6.07,12.9q-5,5.65-14.29,9.08Q275.26,134,268,133.42A24.72,24.72,0,0,1,254.58,128Q248.42,123.11,245,113.69Zm17.29-6.29q3,8.14,7.45,10.53a11.55,11.55,0,0,0,9.87.4q5.56-2.05,7.33-6.66t-1.56-13.62q-2.8-7.59-7.27-9.91a11.82,11.82,0,0,0-9.92-.32,11.38,11.38,0,0,0-7.07,6.65Q259.21,99.19,262.24,107.4Z"/><path class="cls-2" d="M306.84,60.93l17.42-1.42L333.13,91l6.58-32.7,17.36-1.41L368.86,88l3.68-32.42,17.33-1.41-8.44,58.14-18,1.46L350.12,78.69l-7.44,36.78-18,1.46Z"/><path class="cls-2" d="M440.51,61.45l23,7.37-1.72,36,19.43-30.37,23,7.36-17.43,54.55-14.35-4.59,13.29-41.6-24.35,38.07-13-4.15L450.73,79l-13.29,41.6L423.08,116Z"/><path class="cls-2" d="M529.95,152.77l-17.54-11.34-7.57,6.36-15.77-10.2L539,101.66l16.85,10.9-12.31,60.24-16.18-10.46Zm3.52-12.47,5.66-20.85L522.49,133.2Z"/><path class="cls-2" d="M545.32,175.32l41.81-39.13,21,22.39q5.83,6.23,7.88,10.48a13.85,13.85,0,0,1,1.16,8.87,17,17,0,0,1-12.33,12.43,16.22,16.22,0,0,1-8.06-.41,22.82,22.82,0,0,1-6.07-3.17,18.69,18.69,0,0,1,1.73,4.94,18.18,18.18,0,0,1-.19,4.21,22.51,22.51,0,0,1-.84,4.31l-6,17.84-14.2-15.18,6.06-19.14a13.4,13.4,0,0,0,.95-5.45,7.94,7.94,0,0,0-2.11-4.2l-1.11-1.19-17,15.88Zm37.5-9.78,5.3,5.66a28.7,28.7,0,0,0,3.9,3,4.89,4.89,0,0,0,3.35,1,5.63,5.63,0,0,0,5.08-5.67q-.16-2.35-3.61-6l-5.52-5.9Z"/><path class="cls-2" d="M637,193.59l8.66,16.23L626.61,220l28.17,6.82,11.52,21.59-29.3-9-20.76,36.81-10.67-20,14.87-22.16-12.92-3.88-12.33,6.58-8.66-16.23Z"/><path class="cls-4" d="M314,295H483.34q0-1.35,0-2.71a111,111,0,0,0-222,0q0,1.36,0,2.71H314Zm56.58-70.5a31,31,0,1,1-31,31A31,31,0,0,1,370.57,224.54Z"/><path class="cls-5" d="M430,316.54a31,31,0,0,1-58.07,0,31,31,0,0,1-58.07,0,31,31,0,0,1-45.16,15.6,111,111,0,0,0,207.54-.7A31,31,0,0,1,430,316.54Z"/><path class="cls-6" d="M430.12,295H261.4a110.61,110.61,0,0,0,7.33,37.11,31,31,0,0,0,45.16-15.6,31,31,0,0,0,58.07,0,31,31,0,0,0,58.07,0,31,31,0,0,0,46.25,14.9A110.62,110.62,0,0,0,483.34,295Z"/><circle class="cls-2" cx="370.57" cy="255.54" r="31"/><path class="cls-7" d="M481.6,481.27a182.29,182.29,0,0,0,21.18-16.12c30.42-26.92,50.15-62.89,55.54-101.3l.73-5.17-5.22,0a171.06,171.06,0,0,0-166.88,141.2h-7.57V418.54h-13.5v81.39h-8.31A171.06,171.06,0,0,0,195.47,358.83l-5.37-.2.75,5.32c5.31,37.62,24.45,73,53.91,99.75a183.12,183.12,0,0,0,29.09,21.48,165.74,165.74,0,0,0-85.31,24,166.37,166.37,0,0,0,177.32,20.54V559h13.5V526.12q5.11,2.78,10.43,5.21a166.67,166.67,0,0,0,174.4-22.56A165.6,165.6,0,0,0,481.6,481.27Zm-281-113.15A161.49,161.49,0,0,1,348.79,502C272.79,491.77,213,437.76,200.63,368.12Zm347.94-.26C536,438.53,473,494,395.61,502.55,408.28,427.72,472.61,371,548.57,367.86Z"/></svg>