<svg id="Layer_1" data-name="Layer 1" xmlns="http://www.w3.org/2000/svg" viewBox="0 0 878 472"><defs><style>.cls-1{fill:#2e3192;}.cls-2{fill:#f58220;}.cls-2,.cls-3{fill-rule:evenodd;}.cls-3{fill:#1f9649;}</style></defs><title>fairseed-logo</title><path class="cls-1" d="M420.81,260h35.06V202.82a41.55,41.55,0,0,1,.69-7.84c2.31-10.84,11.08-17.76,24-17.76a49.21,49.21,0,0,1,9.46.92v-33a35.61,35.61,0,0,0-7.38-.47c-10.84,0-24.69,6.93-30.45,23.3h-.92l-1.15-20.76H419.88c.46,9.7.93,20.53.93,37.14ZM375.13,98.08c-11.31,0-18.69,7.61-18.46,17.77-.23,9.69,7.15,17.53,18.23,17.53,11.53,0,18.92-7.84,18.92-17.53C393.59,105.69,386.43,98.08,375.13,98.08ZM392.66,260V147.22H357.6V260ZM295.78,219a25.3,25.3,0,0,1-.7,6,19.16,19.16,0,0,1-18.23,12.91C269,237.88,263,233.5,263,224.5c0-13.61,14.31-18,32.76-17.76ZM331.53,260c-1.15-6.23-1.61-16.6-1.61-27.45V193.36c0-26.53-12-48.68-49.59-48.68-20.53,0-36,5.54-43.83,9.92l6.46,22.61c7.38-4.62,19.61-8.54,31.14-8.54,17.3,0,20.54,8.54,20.54,14.54v1.62c-39.91-.24-66.21,13.83-66.21,43.13,0,18,13.61,34.6,36.44,34.6,13.38,0,24.92-4.85,32.3-13.83h.69L299.93,260Zm-207.16,0h35.3V197.51H215.5V168.9H159.67V133.38h59.75V104.54H124.37Z"/><path class="cls-1" d="M507.91,381.94a31.06,31.06,0,0,1-1,8.49,21.94,21.94,0,0,1-21.81,17.73c-15.61,0-25.77-12.63-25.77-32.79,0-18.71,8.92-33.77,26-33.77,11.65,0,19.83,8.26,22.06,18.22a60.35,60.35,0,0,1,.49,6.56Zm0-119.51v64.37h-.49c-5.46-8.26-17.1-13.36-32-13.36-29,0-54.51,23.08-54.26,63.16,0,36.93,23,61,51.78,61,15.62,0,30.24-6.81,37.92-20.17h.5l1.73,17.49h33.45c-.5-8-1-22.1-1-35.47v-137ZM326,362c1-10,7.44-24,23.29-24,17.34,0,21.3,15.05,21.3,24Zm78.3,25.26a85.82,85.82,0,0,0,1.24-14.58c0-29.39-14.86-59.27-54-59.27-42.12,0-61.21,33.28-61.21,63.4,0,37.16,23.54,60.49,64.67,60.49,16.35,0,31.47-2.43,43.86-7.3l-5-25a108.88,108.88,0,0,1-33.46,4.86c-17.59,0-32.95-7.29-34.19-22.59ZM195.2,362c1-10,7.44-24,23.29-24,17.34,0,21.3,15.05,21.3,24Zm78.3,25.26a85.82,85.82,0,0,0,1.24-14.58c0-29.39-14.86-59.27-54-59.27-42.12,0-61.2,33.28-61.2,63.4,0,37.16,23.54,60.49,64.67,60.49,16.35,0,31.47-2.43,43.86-7.3l-5-25a108.88,108.88,0,0,1-33.45,4.86c-17.59,0-32.95-7.29-34.19-22.59ZM25.72,427.36c9.41,5.1,28.25,10,47.33,10,45.84,0,67.4-23.32,67.4-50.78,0-23.07-13.88-38.14-43.37-48.82-21.55-8-31-12.64-31-23.08,0-8.5,7.93-15.79,24.29-15.79a80.69,80.69,0,0,1,34.94,7.77l8.43-29.88c-9.91-4.37-23.79-8.25-42.62-8.25-39.4,0-63.18,21.38-63.18,49.31,0,23.8,18.09,38.86,45.84,48.34,20.07,7,28,12.87,28,23.07,0,10.69-9.17,17.73-26.51,17.73-16.11,0-31.72-5.1-41.88-10.2Z"/><path class="cls-2" d="M707.88,177.85a63.26,63.26,0,0,1-16.5-20.51l2.16.22c32.74,3.39,66,6.84,97.24,4a210.38,210.38,0,0,1-36,10.48,332.57,332.57,0,0,1-46.87,5.76m39.85-112A63.08,63.08,0,0,1,810.8,129c0,1.38,0,2.75-.14,4.1-34.42,7.71-74.89,3.51-114.56-.59l-11.42-1.18,0-2.33A63.08,63.08,0,0,1,747.72,65.89Z"/><path class="cls-3" d="M641.87,190.05c-93.52-4.86-137.8,55.42-152.85,102.37-13.6-69.24,32.54-141.79,110.78-150.74,73.15-8.88,170.85,26.41,239.79-4.91-1.86,242.46-178.07,310.35-283.26,260.83,3-107.67,51.25-155.27,134.62-156.36q110.47-3.09,136.72-84.84c-35.73,24.32-90.22,39.25-185.8,33.65"/></svg>