<svg id="Layer_1" data-name="Layer 1" xmlns="http://www.w3.org/2000/svg" xmlns:xlink="http://www.w3.org/1999/xlink" viewBox="0 0 582.06 709.81"><defs><style>.cls-1,.cls-11,.cls-2{fill:none;}.cls-1{clip-rule:evenodd;}.cls-3,.cls-8{fill:#00a651;}.cls-3,.cls-5,.cls-6,.cls-7{fill-rule:evenodd;}.cls-4{clip-path:url(#clip-path);}.cls-5{fill:#fff200;}.cls-10,.cls-6{fill:#231f20;}.cls-12,.cls-7{fill:#fff;}.cls-9{clip-path:url(#clip-path-2);}.cls-11{stroke:#231f20;stroke-miterlimit:2.61;stroke-width:0.22px;}</style><clipPath id="clip-path"><path class="cls-1" d="M298.15,33.27c143.86,0,260.49,116.63,260.49,260.49S442,554.25,298.15,554.25,37.66,437.62,37.66,293.76,154.29,33.27,298.15,33.27"/></clipPath><clipPath id="clip-path-2"><rect class="cls-2" x="34.89" y="557.49" width="512.85" height="133.34"/></clipPath></defs><title>leaderag-logo</title><path class="cls-3" d="M298.15,33.27c143.86,0,260.49,116.63,260.49,260.49S442,554.25,298.15,554.25,37.66,437.62,37.66,293.76,154.29,33.27,298.15,33.27"/><g class="cls-4"><path class="cls-5" d="M706.73,335.93l-449.4,14.52c-20,1.89-17.22,1.77-1.42,2.9l450.82,14.88Z"/><path class="cls-5" d="M713.9,307.23l-449.4,14.51c-20,1.89-17.22,1.77-1.42,2.9L713.9,339.53Z"/><path class="cls-5" d="M721.42,280.59,272,295.1c-20,1.89-17.22,1.77-1.42,2.9l450.82,14.88Z"/><path class="cls-5" d="M734.06,253.26l-449.4,14.51c-20,1.89-17.22,1.77-1.42,2.9l450.82,14.88Z"/><path class="cls-5" d="M745.67,226.27l-449.4,14.51c-20,1.89-17.22,1.77-1.42,2.9l450.82,14.88Z"/><path class="cls-5" d="M760,199.63l-449.4,14.51c-20,1.89-17.22,1.77-1.42,2.9L760,231.92Z"/><path class="cls-5" d="M771.63,174l-449.4,14.52c-20,1.89-17.22,1.77-1.42,2.9L771.63,206.3Z"/><path class="cls-5" d="M785.64,147l-449.4,14.51c-20,1.89-17.22,1.77-1.43,2.9l450.82,14.88Z"/><path class="cls-5" d="M802.38,122.43,353,136.94c-20,1.89-17.22,1.77-1.42,2.9l450.82,14.88Z"/><path class="cls-5" d="M817.75,97.49,368.36,112c-20,1.89-17.22,1.77-1.43,2.9l450.82,14.88Z"/><path class="cls-5" d="M834.83,72.89,385.43,87.41c-20,1.89-17.22,1.77-1.42,2.9l450.82,14.88Z"/><path class="cls-5" d="M848.16,48.64,398.76,63.16c-20,1.88-17.22,1.77-1.42,2.9L848.16,80.93Z"/><path class="cls-5" d="M692.37,364,243,378.47c-20,1.89-17.22,1.77-1.42,2.9l450.82,14.89Z"/><path class="cls-5" d="M690.26,392.34l-449.4,14.51c-20,1.89-17.22,1.77-1.42,2.9l450.82,14.88Z"/><path class="cls-5" d="M691.32,419l-449.4,14.51c-20,1.89-17.22,1.77-1.42,2.9l450.82,14.88Z"/><path class="cls-5" d="M698.67,441.38,249.27,455.9c-20,1.89-17.22,1.77-1.42,2.9l450.82,14.88Z"/><path class="cls-5" d="M863.33,467l-449.4,14.51c-20,1.89-17.22,1.77-1.42,2.9l450.82,14.88Z"/><path class="cls-5" d="M840.91,481l-449.4,14.52c-20,1.88-17.22,1.76-1.42,2.9l450.82,14.88Z"/><path class="cls-5" d="M818.84,495.69,369.44,510.2c-20,1.89-17.22,1.77-1.43,2.9L818.84,528Z"/><path class="cls-5" d="M773.64,510.06l-449.4,14.51c-20,1.89-17.22,1.77-1.42,2.9l450.82,14.88Z"/><path class="cls-5" d="M724.25,524.76l-449.4,14.52c-20,1.89-17.22,1.77-1.42,2.9l450.82,14.88Z"/></g><path class="cls-6" d="M170.35,299.12c44.85-82.34,104.1-163,199.54-243.54,12.84-10.74,18.55-3.76,14,6.09C299,183.66,220.36,319,209.11,397.64c-7.58,69.93,33.19,83.83,96.18,73.1,43.09-7.48,127-45.12,131.42-35.3,3.76,11.42-17.3,32.07-46.22,50.14-74.67,47.12-179.85,58.66-239.78,17.67-41.2-36.06-16.7-133.7,19.64-204.12"/><path class="cls-7" d="M160.75,294.33c44.85-82.34,104.1-163,199.54-243.54,12.84-10.73,18.55-3.76,14,6.1-84.89,122-163.56,257.29-174.81,336-7.58,69.93,33.19,83.84,96.18,73.11,43.1-7.48,127-45.12,131.42-35.3,3.76,11.42-17.3,32.07-46.23,50.14C306.22,527.91,201,539.45,141.11,498.45c-41.2-36.06-16.7-133.7,19.64-204.12"/><rect class="cls-8" x="34.89" y="557.49" width="512.85" height="133.34"/><g class="cls-9"><path class="cls-5" d="M844.93,551.62l-449.4,14.51c-20,1.89-17.22,1.77-1.42,2.9l450.82,14.88Z"/><path class="cls-5" d="M844.93,576.65l-449.4,14.51c-20,1.89-17.22,1.77-1.42,2.9L844.93,609Z"/><path class="cls-5" d="M844.93,602.23l-449.4,14.51c-20,1.89-17.22,1.77-1.42,2.9l450.82,14.88Z"/><path class="cls-5" d="M844.93,628.08l-449.4,14.51c-20,1.89-17.22,1.77-1.42,2.9l450.82,14.88Z"/><path class="cls-5" d="M844.93,651l-449.4,14.51c-20,1.89-17.22,1.77-1.42,2.9l450.82,14.88Z"/><path class="cls-5" d="M844.93,671.68,395.53,686.2c-20,1.89-17.22,1.77-1.42,2.9L844.93,704Z"/><path class="cls-5" d="M26.61,556.17H207.84c-9.5,62.38,28.12,100.06,74.76,137h-256Z"/></g><path class="cls-10" d="M545.57,559.66H37.06v129H545.57ZM34.89,555.32h515V693H32.72V555.32Z"/><path class="cls-10" d="M528.88,643.4a2.79,2.79,0,0,1-.65,2l-.64.82a19.31,19.31,0,0,1-6.18,4.19,38,38,0,0,1-8,2.67,55.12,55.12,0,0,1-5.72,1c-1.12.1-2.22.14-3.32.14h-1.72q-1.14-.14-7-.77t-12.33-6.57q-6.5-5.93-7.43-12a68.38,68.38,0,0,1-.93-7.82c0-.5,0-.94,0-1.34s.14-1.69.36-3.89,1.51-5.3,3.9-9.28a25.69,25.69,0,0,1,9.43-9.31q5.86-3.33,14.66-3.34a61.64,61.64,0,0,1,7.47.41,32.07,32.07,0,0,1,6.76,1.68l2.07.74a25.39,25.39,0,0,1,5.11,2.56,3.41,3.41,0,0,1,1,2.78,34.47,34.47,0,0,1-.61,8.09,2.58,2.58,0,0,1-2.68,2.07,11.48,11.48,0,0,1-2-.33,3.52,3.52,0,0,1-2.32-2.34l-.71-1.93a9.8,9.8,0,0,0-5.44-5.41,13.85,13.85,0,0,0-5.08-.89,11.36,11.36,0,0,0-9.11,4.19q-3.54,4.19-3.54,12c0,.3,0,.75-.07,1.37s-.07,1.07-.07,1.38c0,.59,0,1.06,0,1.41s.24,2.11.64,5.3a16.75,16.75,0,0,0,3.61,8.53q3,3.75,6.72,3.75,5.58,0,5.57-6.3V636l-.07-.52-.07-.67q-.57-2.45-2.72-2.44h-2.65c-2.76,0-4.15-1.13-4.15-3.38a12.52,12.52,0,0,1,.32-2.22,2.57,2.57,0,0,1,2.08-2q1.75-.48,9.26-.48h13.08q2,0,2.36,1.07a5.74,5.74,0,0,1,.36,1.74,6.63,6.63,0,0,1-.21,1.49l-.36,1.48-.43,2.31-.14,1.4a44.1,44.1,0,0,0,.18,4.53,21.22,21.22,0,0,0,1,4.15l.07.3Zm-82.71-14-.57-2-.5-1.78-.36-1.19-.71-1.93-.86-2.37-.5-1.56-.68-1.7a20.89,20.89,0,0,0-1-2.16q-.85,1.7-1.71,3.71t-1.65,4.23l-.64,1.7-.5,1.41-.57,1.78-.5,1.86Zm27.74,21.81a2.94,2.94,0,0,1-2.86,1.86h-21.3a2.94,2.94,0,0,1-2.86-1.86,4.13,4.13,0,0,1-.21-1.26,2.86,2.86,0,0,1,1.64-2.67l.36-.22.5-.3a3.22,3.22,0,0,0,1-.93,2.42,2.42,0,0,0,.32-1.37,25.7,25.7,0,0,0-1.07-5.2l-.57-2.07H432.94l-.5,1.48c-.53,1.49-.87,2.57-1,3.26a8.23,8.23,0,0,0-.25,1.93,3.24,3.24,0,0,0,1.86,3.19l.36.22a3.69,3.69,0,0,1,1.18,1.18,2.9,2.9,0,0,1,.47,1.56,5.82,5.82,0,0,1-.47,1.82q-.47,1.23-2.61,1.23H420.86c-1.38,0-2.23-.41-2.54-1.23a5.8,5.8,0,0,1-.46-1.82,3.12,3.12,0,0,1,1.64-2.74l.43-.22a3,3,0,0,0,.82-.71,7.54,7.54,0,0,0,.75-1.3l.57-1.34.14-.22,2.22-6,1.36-3.85,3.5-9.72,2-5.5q4.51-10.9,6.72-14.06c1.48-2.11,3.15-3.26,5-3.49a40.52,40.52,0,0,1,4.72-.33,7.57,7.57,0,0,1,2.79.41,5.29,5.29,0,0,1,1.86,1.3l.5.52.15.15a28.59,28.59,0,0,1,2.75,4.67q1.53,3.12,3.25,7.27t2.86,7.16q1.14,3,3.29,9L467.9,639q.5,1.55.93,2.71c.29.76.52,1.37.71,1.82l.22.45.5,1.11a3.68,3.68,0,0,0,1.78,2l.22.07.22.15a3.73,3.73,0,0,1,1.18,1.18,2.9,2.9,0,0,1,.46,1.56A3.46,3.46,0,0,1,473.91,651.26Z"/><path class="cls-11" d="M524.74,641.09a2.78,2.78,0,0,1-.65,2l-.64.82a19.49,19.49,0,0,1-6.18,4.19,38,38,0,0,1-8,2.67,53.73,53.73,0,0,1-5.72,1q-1.68.15-3.32.15H498.5q-1.14-.14-7-.78t-12.33-6.57q-6.5-5.94-7.43-12a68.32,68.32,0,0,1-.93-7.82c0-.5,0-.94,0-1.34s.14-1.69.36-3.9,1.51-5.29,3.9-9.27a25.69,25.69,0,0,1,9.43-9.31q5.86-3.34,14.66-3.34a60.53,60.53,0,0,1,7.47.41,32,32,0,0,1,6.76,1.67l2.07.74a25.71,25.71,0,0,1,5.11,2.56,3.41,3.41,0,0,1,1,2.78,34.47,34.47,0,0,1-.61,8.09,2.58,2.58,0,0,1-2.68,2.08,11.12,11.12,0,0,1-2-.33,3.53,3.53,0,0,1-2.32-2.33l-.72-1.93a9.78,9.78,0,0,0-5.44-5.41,13.85,13.85,0,0,0-5.08-.9,11.38,11.38,0,0,0-9.11,4.19q-3.54,4.19-3.54,12c0,.3,0,.76-.07,1.38s-.07,1.07-.07,1.37c0,.59,0,1.06,0,1.41s.24,2.12.64,5.31a16.75,16.75,0,0,0,3.61,8.53q3,3.75,6.72,3.75,5.58,0,5.57-6.3v-2.9l-.07-.52-.07-.66c-.38-1.64-1.29-2.45-2.72-2.45h-2.65q-4.14,0-4.14-3.38a12.47,12.47,0,0,1,.32-2.21,2.59,2.59,0,0,1,2.08-2q1.75-.48,9.26-.48h13.08q2,0,2.36,1.07a5.71,5.71,0,0,1,.36,1.74,6.54,6.54,0,0,1-.21,1.48l-.35,1.49-.43,2.3-.14,1.41a45.2,45.2,0,0,0,.18,4.53,21.31,21.31,0,0,0,1,4.15l.07.3Zm-82.71-14-.57-2-.5-1.78-.36-1.19-.71-1.93-.86-2.37-.5-1.56-.68-1.71a20.19,20.19,0,0,0-1-2.15q-.85,1.7-1.71,3.71t-1.64,4.23l-.64,1.7-.5,1.41-.57,1.78-.5,1.85ZM469.76,649a2.93,2.93,0,0,1-2.86,1.85H445.6a2.93,2.93,0,0,1-2.86-1.85,4.17,4.17,0,0,1-.21-1.26,2.87,2.87,0,0,1,1.65-2.67l.36-.22.5-.3a3.35,3.35,0,0,0,1-.93,2.45,2.45,0,0,0,.32-1.37,25.63,25.63,0,0,0-1.07-5.2l-.57-2.08H428.8l-.5,1.48c-.53,1.49-.87,2.57-1,3.27a8.18,8.18,0,0,0-.25,1.93,3.24,3.24,0,0,0,1.86,3.19l.36.22a3.68,3.68,0,0,1,1.18,1.19,2.89,2.89,0,0,1,.47,1.56,5.8,5.8,0,0,1-.47,1.82q-.47,1.23-2.61,1.23H416.72c-1.38,0-2.23-.41-2.54-1.23a5.77,5.77,0,0,1-.46-1.82,3.14,3.14,0,0,1,1.64-2.75l.43-.22a3,3,0,0,0,.82-.7,7.63,7.63,0,0,0,.75-1.3l.57-1.34.14-.22,2.22-6,1.36-3.85,3.5-9.72,2-5.49q4.51-10.9,6.72-14.06t5-3.49a40.68,40.68,0,0,1,4.72-.33,7.68,7.68,0,0,1,2.79.41,5.39,5.39,0,0,1,1.86,1.3l.5.52.15.14a28.44,28.44,0,0,1,2.75,4.68c1,2.07,2.11,4.51,3.25,7.27s2.1,5.15,2.86,7.16,1.86,5,3.29,9l2.72,7.94q.5,1.56.93,2.71c.29.77.52,1.37.71,1.82l.22.45.5,1.11a3.65,3.65,0,0,0,1.79,2l.21.08.22.14a3.75,3.75,0,0,1,1.18,1.19,2.88,2.88,0,0,1,.46,1.56A3.48,3.48,0,0,1,469.76,649Z"/><path class="cls-12" d="M524.74,641.09a2.78,2.78,0,0,1-.65,2l-.64.82a19.49,19.49,0,0,1-6.18,4.19,38,38,0,0,1-8,2.67,53.73,53.73,0,0,1-5.72,1q-1.68.15-3.32.15H498.5q-1.14-.14-7-.78t-12.33-6.57q-6.5-5.94-7.43-12a68.32,68.32,0,0,1-.93-7.82c0-.5,0-.94,0-1.34s.14-1.69.36-3.9,1.51-5.29,3.9-9.27a25.69,25.69,0,0,1,9.43-9.31q5.86-3.34,14.66-3.34a60.53,60.53,0,0,1,7.47.41,32,32,0,0,1,6.76,1.67l2.07.74a25.71,25.71,0,0,1,5.11,2.56,3.41,3.41,0,0,1,1,2.78,34.47,34.47,0,0,1-.61,8.09,2.58,2.58,0,0,1-2.68,2.08,11.12,11.12,0,0,1-2-.33,3.53,3.53,0,0,1-2.32-2.33l-.72-1.93a9.78,9.78,0,0,0-5.44-5.41,13.85,13.85,0,0,0-5.08-.9,11.38,11.38,0,0,0-9.11,4.19q-3.54,4.19-3.54,12c0,.3,0,.76-.07,1.38s-.07,1.07-.07,1.37c0,.59,0,1.06,0,1.41s.24,2.12.64,5.31a16.75,16.75,0,0,0,3.61,8.53q3,3.75,6.72,3.75,5.58,0,5.57-6.3v-2.9l-.07-.52-.07-.66c-.38-1.64-1.29-2.45-2.72-2.45h-2.65q-4.14,0-4.14-3.38a12.47,12.47,0,0,1,.32-2.21,2.59,2.59,0,0,1,2.08-2q1.75-.48,9.26-.48h13.08q2,0,2.36,1.07a5.71,5.71,0,0,1,.36,1.74,6.54,6.54,0,0,1-.21,1.48l-.35,1.49-.43,2.3-.14,1.41a45.2,45.2,0,0,0,.18,4.53,21.31,21.31,0,0,0,1,4.15l.07.3Zm-82.71-14-.57-2-.5-1.78-.36-1.19-.71-1.93-.86-2.37-.5-1.56-.68-1.71a20.19,20.19,0,0,0-1-2.15q-.85,1.7-1.71,3.71t-1.64,4.23l-.64,1.7-.5,1.41-.57,1.78-.5,1.85ZM469.76,649a2.93,2.93,0,0,1-2.86,1.85H445.6a2.93,2.93,0,0,1-2.86-1.85,4.17,4.17,0,0,1-.21-1.26,2.87,2.87,0,0,1,1.65-2.67l.36-.22.5-.3a3.35,3.35,0,0,0,1-.93,2.45,2.45,0,0,0,.32-1.37,25.63,25.63,0,0,0-1.07-5.2l-.57-2.08H428.8l-.5,1.48c-.53,1.49-.87,2.57-1,3.27a8.18,8.18,0,0,0-.25,1.93,3.24,3.24,0,0,0,1.86,3.19l.36.22a3.68,3.68,0,0,1,1.18,1.19,2.89,2.89,0,0,1,.47,1.56,5.8,5.8,0,0,1-.47,1.82q-.47,1.23-2.61,1.23H416.72c-1.38,0-2.23-.41-2.54-1.23a5.77,5.77,0,0,1-.46-1.82,3.14,3.14,0,0,1,1.64-2.75l.43-.22a3,3,0,0,0,.82-.7,7.63,7.63,0,0,0,.75-1.3l.57-1.34.14-.22,2.22-6,1.36-3.85,3.5-9.72,2-5.49q4.51-10.9,6.72-14.06t5-3.49a40.68,40.68,0,0,1,4.72-.33,7.68,7.68,0,0,1,2.79.41,5.39,5.39,0,0,1,1.86,1.3l.5.52.15.14a28.44,28.44,0,0,1,2.75,4.68c1,2.07,2.11,4.51,3.25,7.27s2.1,5.15,2.86,7.16,1.86,5,3.29,9l2.72,7.94q.5,1.56.93,2.71c.29.77.52,1.37.71,1.82l.22.45.5,1.11a3.65,3.65,0,0,0,1.79,2l.21.08.22.14a3.75,3.75,0,0,1,1.18,1.19,2.88,2.88,0,0,1,.46,1.56A3.48,3.48,0,0,1,469.76,649Z"/><path class="cls-6" d="M364.9,606.89c-5.57-2.11-6-10.29-2-10.18h16.59c8.59,0,6.26,6.81,8.79,7.33,4.17-6,10.52-10.57,18.73-6.65,9.88,5.69,8.45,16.95,4.07,21.31-4.19,4.73-12.59,3.82-16.7-.81a12.12,12.12,0,0,1-3.4-8.82c-3.27,1.33-4.25,3.74-4.48,6.52V646c.58,4.08,5.66,3.9,6.24,7.74,0,2.11-1.55,3-4.89,3H361c-2.4-1.64-1.19-6.5,3.94-8.42v-41.4M326,606.41a13,13,0,0,0-4.66,12h12.9V607.09C331.76,603.7,329.2,604.3,326,606.41Zm23.39,31.78c2.32-3.49,7.76-1.48,7,3.22-3.93,12-15.69,16-28,16-16.16-.85-29.17-10.65-28.63-31.85.4-17.86,15.65-29.21,29.38-29.48,17.79-.14,29.5,12.9,27,31.2H322.61C319.56,643.82,336.27,653.18,349.41,638.18Zm-91.2,7.51c5.8,2.71,11.36,1.3,13.11-3.45V613.08c-.36-3.86-5-5.3-11.3-1.85-5.7,3.81-6.24,10-6.06,17.38C253.59,637.47,254.68,643.29,258.21,645.69Zm5.49-46.6c3.74,1.4,6.12,5.87,7.65,2.78V573.94c-4.33-1-5-5.8-1.19-6.15H293c2.84.14,1.94,3.65-.42,5.3.17,20.25.34,61.11.5,81.36-1.18,2.26-7.39,2.83-8.8.85-2.45-4.27-5.83-4.83-11.29-1.1-12.72,8.14-30.62-.31-38.16-12.77-4.35-8.25-4.78-20.22-.58-29.21C239.16,601.45,250.32,595,263.7,599.09Zm-75.52,43.83c-2.92-7.31,4.3-14.6,10.62-14.16v13.75C195.46,647.65,189.7,646.73,188.19,642.92Zm.85-30.45c.75,6.35-1,9.36-9.74,9.11-7.61-1-14-6.25-9.33-15.16,3.81-7.18,12.13-10.6,24.25-10.84,19.46,1,25.64,11.25,26,19.94v30.36c5.11.3,9.59.66,9.33,5.32-1.05,4.75-5.39,7.31-13.18,7.46-4.81.31-9.08-1.09-12.36-5.6-1.15-2.47-3.81-2.25-6.64,0-15.57,7.85-26.7,5-30.49-4.78-2.15-7.88-.92-16.35,12.73-22.54,6.56-3.82,17.91-1.53,20.33-10.22.74-4.76-.06-8.38-5.13-8.86C191.8,606.47,188.84,605.65,189,612.47Zm-58.16-6.07a13,13,0,0,0-4.66,12h12.9V607.09C136.62,603.7,134.05,604.3,130.88,606.41Zm23.39,31.78c2.32-3.49,7.76-1.48,7,3.22-3.92,12-15.69,16-28,16-16.16-.85-29.17-10.65-28.63-31.85C105,607.67,120.27,596.33,134,596c17.79-.14,29.5,12.9,27,31.2H127.46C124.42,643.82,141.13,653.18,154.27,638.18ZM61.78,663.55q.36-44,.72-88.07c-3.42-2.4-4.72-7.48-.61-7.69H96.06c5.45.51,2.31,6.48-1.73,8.92v71.07c8,7.48,15.16,15.83,27.93,20.68,10.92,3.39,21.39-4.15,25-4.91,3.89-1,6,1.89,4.16,6.07-11,14.52-22.87,21.34-35.89,18.55-10.06-2.58-20.12-8.72-30.17-17.16H64.21C59.77,670.52,58.83,668.1,61.78,663.55Z"/><path class="cls-11" d="M360.58,603.33c-5.57-2.11-6-10.29-2-10.18h16.59c8.59,0,6.26,6.81,8.79,7.33,4.17-6,10.52-10.56,18.73-6.66,9.88,5.69,8.45,17,4.07,21.31-4.19,4.73-12.59,3.82-16.7-.81a12.13,12.13,0,0,1-3.4-8.82c-3.27,1.33-4.25,3.74-4.48,6.52v30.4c.58,4.08,5.66,3.91,6.24,7.74,0,2.11-1.55,3-4.89,3H356.65c-2.4-1.64-1.18-6.5,3.94-8.42Zm-38.88-.48a13,13,0,0,0-4.66,12h12.9V603.53C327.44,600.15,324.87,600.75,321.7,602.85Zm23.39,31.78c2.32-3.49,7.76-1.48,7,3.22-3.92,12-15.69,16-28,16C307.91,653,294.9,643.17,295.44,622c.41-17.87,15.65-29.21,29.38-29.49,17.79-.14,29.5,12.9,27,31.2H318.28C315.24,640.26,332,649.62,345.09,634.63Zm-91.2,7.51c5.8,2.72,11.36,1.3,13.12-3.45V609.52c-.36-3.85-5-5.3-11.3-1.85-5.69,3.81-6.23,10-6.06,17.38C249.27,633.91,250.35,639.73,253.89,642.13Zm5.49-46.6c3.74,1.4,6.12,5.87,7.65,2.78V570.38c-4.33-1-5-5.8-1.19-6.15h22.83c2.84.14,1.94,3.64-.42,5.3.17,20.25.34,61.11.5,81.36-1.18,2.26-7.39,2.83-8.8.85-2.45-4.27-5.84-4.83-11.29-1.1-12.72,8.14-30.61-.31-38.16-12.76-4.35-8.26-4.78-20.23-.58-29.22C234.84,597.89,246,591.43,259.39,595.53Zm-75.52,43.83c-2.92-7.3,4.29-14.6,10.62-14.16V639C191.14,644.09,185.37,643.17,183.87,639.37Zm.85-30.45c.75,6.35-1,9.36-9.74,9.11-7.61-1-14-6.25-9.33-15.16,3.82-7.18,12.13-10.6,24.25-10.84,19.46,1,25.64,11.24,26,19.94v30.36c5.11.3,9.59.66,9.33,5.32-1.05,4.75-5.39,7.31-13.18,7.46-4.81.3-9.08-1.09-12.36-5.6-1.16-2.47-3.82-2.25-6.65,0-15.57,7.85-26.7,5-30.49-4.78-2.15-7.88-.91-16.35,12.73-22.55,6.56-3.81,17.91-1.53,20.33-10.21.74-4.75-.06-8.38-5.13-8.86C187.48,602.91,184.52,602.1,184.71,608.91Zm-58.16-6.07a13,13,0,0,0-4.66,12h12.9V603.53C132.3,600.15,129.73,600.75,126.56,602.85Zm23.39,31.78c2.32-3.49,7.75-1.48,7,3.22-3.92,12-15.69,16-28,16C112.77,653,99.76,643.17,100.3,622c.4-17.87,15.64-29.21,29.38-29.49,17.79-.14,29.5,12.9,27,31.2H123.14C120.1,640.26,136.81,649.62,149.95,634.63ZM57.46,660q.36-44,.72-88.07c-3.42-2.4-4.72-7.48-.6-7.68H91.74c5.45.51,2.31,6.47-1.73,8.91v71.07c8,7.49,15.16,15.83,27.93,20.68,10.92,3.39,21.39-4.15,25-4.91,3.89-1,6,1.88,4.16,6.07-11,14.52-22.87,21.34-35.89,18.55C101.15,682,91.09,675.88,81,667.44H59.89C55.45,667,54.51,664.54,57.46,660Z"/><path class="cls-7" d="M360.58,603.33c-5.57-2.11-6-10.29-2-10.18h16.59c8.59,0,6.26,6.81,8.79,7.33,4.17-6,10.52-10.56,18.73-6.66,9.88,5.69,8.45,17,4.07,21.31-4.19,4.73-12.59,3.82-16.7-.81a12.13,12.13,0,0,1-3.4-8.82c-3.27,1.33-4.25,3.74-4.48,6.52v30.4c.58,4.08,5.66,3.91,6.24,7.74,0,2.11-1.55,3-4.89,3H356.65c-2.4-1.64-1.18-6.5,3.94-8.42v-41.4m-38.88-.48a13,13,0,0,0-4.66,12h12.9V603.53C327.44,600.15,324.87,600.75,321.7,602.85Zm23.39,31.78c2.32-3.49,7.76-1.48,7,3.22-3.92,12-15.69,16-28,16C307.91,653,294.9,643.17,295.44,622c.41-17.87,15.65-29.21,29.38-29.49,17.79-.14,29.5,12.9,27,31.2H318.28C315.24,640.26,332,649.62,345.09,634.63Zm-91.2,7.51c5.8,2.72,11.36,1.3,13.12-3.45V609.52c-.36-3.85-5-5.3-11.3-1.85-5.69,3.81-6.23,10-6.06,17.38C249.27,633.91,250.35,639.73,253.89,642.13Zm5.49-46.6c3.74,1.4,6.12,5.87,7.65,2.78V570.38c-4.33-1-5-5.8-1.19-6.15h22.83c2.84.14,1.94,3.64-.42,5.3.17,20.25.34,61.11.5,81.36-1.18,2.26-7.39,2.83-8.8.85-2.45-4.27-5.84-4.83-11.29-1.1-12.72,8.14-30.61-.31-38.16-12.76-4.35-8.26-4.78-20.23-.58-29.22C234.84,597.89,246,591.43,259.39,595.53Zm-75.52,43.83c-2.92-7.3,4.29-14.6,10.62-14.16V639C191.14,644.09,185.37,643.17,183.87,639.37Zm.85-30.45c.75,6.35-1,9.36-9.74,9.11-7.61-1-14-6.25-9.33-15.16,3.82-7.18,12.13-10.6,24.25-10.84,19.46,1,25.64,11.24,26,19.94v30.36c5.11.3,9.59.66,9.33,5.32-1.05,4.75-5.39,7.31-13.18,7.46-4.81.3-9.08-1.09-12.36-5.6-1.16-2.47-3.82-2.25-6.65,0-15.57,7.85-26.7,5-30.49-4.78-2.15-7.88-.91-16.35,12.73-22.55,6.56-3.81,17.91-1.53,20.33-10.21.74-4.75-.06-8.38-5.13-8.86C187.48,602.91,184.52,602.1,184.71,608.91Zm-58.16-6.07a13,13,0,0,0-4.66,12h12.9V603.53C132.3,600.15,129.73,600.75,126.56,602.85Zm23.39,31.78c2.32-3.49,7.75-1.48,7,3.22-3.92,12-15.69,16-28,16C112.77,653,99.76,643.17,100.3,622c.4-17.87,15.64-29.21,29.38-29.49,17.79-.14,29.5,12.9,27,31.2H123.14C120.1,640.26,136.81,649.62,149.95,634.63ZM57.46,660q.36-44,.72-88.07c-3.42-2.4-4.72-7.48-.6-7.68H91.74c5.45.51,2.31,6.47-1.73,8.91v71.07c8,7.49,15.16,15.83,27.93,20.68,10.92,3.39,21.39-4.15,25-4.91,3.89-1,6,1.88,4.16,6.07-11,14.52-22.87,21.34-35.89,18.55C101.15,682,91.09,675.88,81,667.44H59.89C55.45,667,54.51,664.54,57.46,660Z"/></svg>