<svg id="Layer_1" data-name="Layer 1" xmlns="http://www.w3.org/2000/svg" xmlns:xlink="http://www.w3.org/1999/xlink" viewBox="0 0 1104.31 488.99"><defs><style>.cls-1,.cls-2,.cls-8{fill:none;}.cls-1{clip-rule:evenodd;}.cls-3{clip-path:url(#clip-path);}.cls-4{fill:#fff200;}.cls-10,.cls-4,.cls-6,.cls-7,.cls-9{fill-rule:evenodd;}.cls-5{clip-path:url(#clip-path-2);}.cls-6{fill:#a4cba3;}.cls-7{fill:#231f20;}.cls-8{stroke:#231f20;stroke-miterlimit:2.61;stroke-width:0.22px;}.cls-9{fill:#0d963f;}.cls-10{fill:#005e22;}.cls-11{clip-path:url(#clip-path-3);}.cls-12{fill:url(#linear-gradient);}</style><clipPath id="clip-path"><path class="cls-1" d="M-510.31-86.75c143.86,0,260.49,116.63,260.49,260.49S-366.45,434.24-510.31,434.24-770.8,317.61-770.8,173.75-654.18-86.75-510.31-86.75"/></clipPath><clipPath id="clip-path-2"><rect class="cls-2" x="-773.58" y="437.48" width="512.85" height="133.34"/></clipPath><clipPath id="clip-path-3"><path class="cls-1" d="M745.5,151.71S715,35.48,559.5,33.3c0,0-81.24,1.69-167.44,77.47,0,0-63.92,66.54-111.87,80.15S174.37,197,174.37,197s117.29,52.91,240.56,21.8c0,0-34.36-10.39-40.91-28.93,0,0,33.89,19.1,69.86,15.83s71.44-23.47,71.44-23.47-46.86-9.23-66-39.24c0,0,50.1,28.35,83.42,24s70.94-20.71,70.94-20.71-45.27-13-40.91-38.72c0,0,22.87,21.78,57.25,26.14s81.86,1.69,102.55,8.21,22.9,9.83,22.9,9.83"/></clipPath><linearGradient id="linear-gradient" x1="480.99" y1="184.16" x2="426.02" y2="73.06" gradientUnits="userSpaceOnUse"><stop offset="0" stop-color="#176232"/><stop offset="0.18" stop-color="#176232"/><stop offset="0.5" stop-color="#249947"/><stop offset="1" stop-color="#d7df23"/></linearGradient></defs><title>plant4life-logo</title><g class="cls-3"><path class="cls-4" d="M9.29-22.53-440.11-8c-20,1.89-17.22,1.77-1.43,2.9L9.29,9.77Z"/><path class="cls-4" d="M54.87,346.95l-449.4,14.51c-20,1.89-17.22,1.77-1.42,2.9L54.87,379.24Z"/><path class="cls-4" d="M32.45,361-417,375.48c-20,1.88-17.22,1.76-1.42,2.9L32.45,393.26Z"/><path class="cls-4" d="M10.37,375.67-439,390.19c-20,1.89-17.22,1.77-1.43,2.9L10.37,408Z"/></g><g class="cls-5"><path class="cls-4" d="M36.46,431.61l-449.4,14.51c-20,1.89-17.22,1.77-1.42,2.9L36.46,463.9Z"/><path class="cls-4" d="M36.46,456.64l-449.4,14.51c-20,1.89-17.22,1.77-1.42,2.9L36.46,488.94Z"/><path class="cls-4" d="M36.46,482.22l-449.4,14.51c-20,1.89-17.22,1.77-1.42,2.9L36.46,514.51Z"/></g><path class="cls-6" d="M636.68,276.86l-62.5,111.61h52.09v-74.9l21.82-37.2,1.74-2.48a24.54,24.54,0,0,1,.25,3.47V388.46h26v21.82h-26v40.18h-23.8V410.28h-62q-7.93,0-12.4-3.71-4.21-4-4.22-10.66a17.41,17.41,0,0,1,.49-5q.75-1.75,6.94-13.15l55.81-100.94Z"/><path class="cls-7" d="M722.24,276.86V388.71q0,20.34,8.43,30.26,8.69,9.67,26.79,9.67H780v21.82H754q-25.06,0-40.18-15.37-14.88-15.62-14.88-40.68V276.86Z"/><path class="cls-7" d="M814,291.74h0a11.86,11.86,0,0,1,9.42,4,12.45,12.45,0,0,1,3.72,9.18,13.25,13.25,0,0,1-3.47,9.42Q820.45,318,814,318a13.08,13.08,0,0,1-9.67-3.72,15,15,0,0,1-.25-18.85Q807.56,291.74,814,291.74ZM803.09,450.46v-119h21.83v119Z"/><path class="cls-8" d="M814,291.74h0a11.86,11.86,0,0,1,9.42,4,12.45,12.45,0,0,1,3.72,9.18,13.25,13.25,0,0,1-3.47,9.42Q820.45,318,814,318a13.08,13.08,0,0,1-9.67-3.72,15,15,0,0,1-.25-18.85Q807.56,291.74,814,291.74ZM803.09,450.46v-119h21.83v119Z"/><path class="cls-7" d="M861.37,450.46V320.26q0-19.85,11.66-31.5,11.91-11.9,30.5-11.91h18.35v20.83H906.51q-11.16,0-17.36,5.46-6,5.21-5.95,16.62v11.66h35.71v20.83H883.2v98.21Z"/><path class="cls-7" d="M963.81,411.28l-8.93-17.36,58.78-32.74a41.84,41.84,0,0,0-11.91-8.68q-5.7-2.74-15.13-2.73-17.11,0-28,11.41t-10.91,29.76q0,18.35,10.91,29.76t28,11.41q18.1,0,27-9.42,9.17-9.67,12.89-27.77l22.08,2.72q0,23.32-18.11,39.44-17.86,15.86-43.9,15.87A61.35,61.35,0,0,1,943,435.58Q924.86,418,924.87,390.95T943,346.55a60.9,60.9,0,0,1,43.65-17.6q20.09,0,34.48,9.92,14.38,9.67,23.06,27.78Z"/><path class="cls-9" d="M31.54,450.46h0V334.4q0-27.28,16.12-43.9T87.1,273.88q25.55,0,41.42,16.37t15.87,39.43q0,23.07-14.14,39.19T95.53,385H64V363.17H88.84q14.13,0,23.06-8.92,9.18-9.18,9.18-24.56t-9.67-24.55q-9.43-9.43-24.06-9.42-14.39,0-23.56,9.67-8.93,9.42-8.93,26v119Zm130.7,0h0V276.86h21.83v173.6Zm144.59,0h0v-67q0-15.87-11.41-24.81-11.16-8.93-27.28-8.92-17.36,0-28.27,12.15T229,391.44a41.64,41.64,0,0,0,10.91,28.77q11.16,11.9,28,11.9a31.81,31.81,0,0,0,16.37-4.21,46.66,46.66,0,0,0,13.64-12.15v25.79A64.66,64.66,0,0,1,283,450.22q-6.69,2.72-17.36,2.73-25.54,0-42.17-18.11-16.37-18.35-16.37-45.13,0-26.29,16.62-43.4,16.86-17.36,44.89-17.36,27.28,0,43.65,15.38t16.36,41.17v65Zm42.91,0h0V381q0-23.3,14.38-37.69t36.46-14.39q22.07,0,36.46,14.39T451.42,381v69.44H429.59V381q0-13.38-8.43-22.32a27.22,27.22,0,0,0-20.58-8.92A27.72,27.72,0,0,0,380,358.7q-8.44,8.68-8.44,22.32v69.44Zm192-98.21H499v62.5q0,8.19,3.72,11.66,4,3.22,12.65,3.22h26.28v20.83H512.43q-16.62,0-26-10.16-9.18-10.42-9.18-28.28V301.66H499v29.76h42.66Z"/><path class="cls-10" d="M335.84,236.95s62.76,12,116.74-1.09,146.72-52.34,207.3-42.52,106.9,36.54,128.7,63.83,42.05,8.72,42.05,8.72,14.92-15.15-8.74-35.48c-15.53-13.34-56.19-67.07-156.58-70.35,0,0-64.4.5-134.75,30.51S404,235.85,358.77,235.85Z"/><g class="cls-11"><rect class="cls-12" x="174.37" y="33.3" width="571.13" height="216.62"/></g><polygon class="cls-7" points="985.45 260.12 985.45 211.28 967.2 211.28 967.2 204.75 1011.1 204.75 1011.1 211.28 992.78 211.28 992.78 260.12 985.45 260.12"/><path class="cls-7" d="M1018.39,260.12V204.75h11l13.11,39.2q1.81,5.48,2.64,8.2.94-3,2.94-8.87l13.26-38.53h9.86v55.37h-7.06V213.77l-16.09,46.35h-6.61l-16-47.14v47.14Z"/></svg>