<svg id="Layer_1" data-name="Layer 1" xmlns="http://www.w3.org/2000/svg" viewBox="0 0 693.07 657.71"><defs><style>.cls-1{fill:#0357a2;}.cls-1,.cls-2,.cls-3{fill-rule:evenodd;}.cls-2,.cls-4{fill:#50b872;}.cls-3{fill:#fff;}.cls-5{fill:none;stroke:#50b872;stroke-miterlimit:2.61;stroke-width:0.22px;}</style></defs><title>sahaab-logo</title><path class="cls-1" d="M88.23,194.1c-16.13,15.11-36,20.74-52.32,61.68-13.93,35.06-10.55,63.53.22,96.7,84.71,3.39,175.64.06,261.11.27,21.94.05,40.16.69,45.45-19.7,5.67-21.84-7.75-36.35-27.5-37.06-49.8-1.81-76.52,5.18-100.17-30.78-21.81-33.18-8.73-74.06,14.59-91.9,28.13-21.52,75-14.67,116.62-14.67,86.89,0,177,2.32,263.47-.27C581.6,120.57,496.76,120.19,496.3,120L472.6,92.3c-30.33-32.09-77.07-61.68-142-62.3A193.78,193.78,0,0,0,214.51,66.8c-18,12.94-9,13.09-37.63,13.66-31.6.61-52.93,17.84-66.83,33.43C89.77,136.63,87.82,158,88.23,194.1"/><path class="cls-2" d="M290.55,252.54c37.84,0,70-.78,89.75,38.86,14.68,29.4,4.56,66.64-12.77,84.35C344,399.81,318,396.36,279.41,396.36L70,396.46c5.72,11.43,24.8,20.46,39.38,25.62,18.49,6.56,35.4,7.71,56.42,7.71H495.47c181,0,197.66-204.83,144.78-227.61L397.47,202c-39.61,0-81-1.16-120.4-.07-19.13.53-32.8,10.72-28.66,31.83,3.6,18.31,20,18.73,42.14,18.73"/><path class="cls-3" d="M417.16,299l156.85.28,25.12-43.65-205.35-.5c1.22,10,19.29,32.17,23.38,43.87"/><path class="cls-1" d="M467.82,532.18l32.51.31-16-36.27Zm-289.59-.05,32.84.41-15.53-37.41Zm196.39,0,32.33.31-10.9-27.33c-2.35-5.2-2.26-5.08-5.27-8.86C384.34,504.23,378.1,520.83,374.62,532.16ZM558.1,512.27c10.25.38,30.29,2.19,35.25-4.35,10.74-14.17-7.72-17.77-19.92-17.57l-15.36.2Zm0,40.13,13.14.29c12.92-.07,35.46-.71,27.65-18.6-4.86-11.13-28.35-8.19-40.77-7.81ZM79.64,540.07l-6.16,13.34c11.53,5.36,18.88,12.45,36.67,12.51,15.46.06,28.12-5.8,31.93-17.06,13.09-38.74-49.65-29.88-46.24-49.61,9.25-15.76,28-5.41,40.67-.61l5.87-13.41c-56.9-24.53-81,18.28-51.74,35.79,9.8,5.87,44.52,8.59,33.92,25.6C115,562,86.43,543.31,79.64,540.07Zm173.58,25.49,15.38.73-.09-37.88,46.74-.06.38,37.19,15.11.66.09-89.22-15.18.21-.22,37.43h-46.5L268.38,477l-15.1.21Zm-104.84-.21,15.7,1,8.12-19.68,45.48-.57,8.12,19.84,15.82.17-38.49-88.85-15-.21Zm394.35.21c25.72,2.68,79.28,7.21,72.42-29.94-2.28-12.34-7.12-13.05-17-17.84,16.83-9.51,34.57-49.83-55.39-40.29Zm-198.35-.26,15.68,1,8.1-19.74,45.53-.41L421.77,566l32,.21,8-19.87,44.84,0,8.8,19.7,15.58.06-38.11-88.74L477.65,477l-39.1,86.55-39.47-86.22-15.91-.49Z"/><path class="cls-3" d="M392.52,395.59l122.71.72c5.52-10.26,21.82-33.13,24.45-43.27l-121.84-.28Z"/><path class="cls-4" d="M575.39,597.12a11.28,11.28,0,0,0-4.2-2.89,15.32,15.32,0,0,0-6-1.1q-4.93,0-7.19,1.87a6.22,6.22,0,0,0-2.26,5.06,5.59,5.59,0,0,0,.6,2.76,5.31,5.31,0,0,0,1.87,1.87,13.1,13.1,0,0,0,3.23,1.36q2,.58,4.64,1.15a50.35,50.35,0,0,1,5.38,1.42,15.29,15.29,0,0,1,4.07,2,8.13,8.13,0,0,1,2.57,2.86,8.9,8.9,0,0,1,.89,4.2,9.41,9.41,0,0,1-1,4.46,8.85,8.85,0,0,1-2.78,3.15,12.57,12.57,0,0,1-4.25,1.87,22.8,22.8,0,0,1-5.41.6,22.23,22.23,0,0,1-15-5.41l1.84-3a14.75,14.75,0,0,0,2.39,2,17.32,17.32,0,0,0,3.1,1.65,19.53,19.53,0,0,0,3.65,1.1,20.25,20.25,0,0,0,4.1.4,12.81,12.81,0,0,0,7-1.6,5.37,5.37,0,0,0,2.49-4.86,5.57,5.57,0,0,0-.71-2.91,6.06,6.06,0,0,0-2.13-2,14.94,14.94,0,0,0-3.51-1.5c-1.4-.42-3-.84-4.89-1.26s-3.67-.92-5.14-1.41A13.76,13.76,0,0,1,555,607a7.2,7.2,0,0,1-2.28-2.65,8.57,8.57,0,0,1-.76-3.81,10.48,10.48,0,0,1,1-4.59,9,9,0,0,1,2.76-3.36,13.1,13.1,0,0,1,4.2-2,18.93,18.93,0,0,1,5.35-.71A18.31,18.31,0,0,1,571.9,591a17.89,17.89,0,0,1,5.28,3.17Zm-40.89,27v3.25h-25V590.13H534v3.25H513.13v13.44h18.22v3.1H513.13v14.22Zm-48.08-27a11.32,11.32,0,0,0-4.2-2.89,15.32,15.32,0,0,0-6-1.1q-4.93,0-7.19,1.87a6.21,6.21,0,0,0-2.26,5.06,5.6,5.6,0,0,0,.6,2.76,5.31,5.31,0,0,0,1.87,1.87,13.11,13.11,0,0,0,3.23,1.36q2,.58,4.65,1.15a50.42,50.42,0,0,1,5.38,1.42,15.28,15.28,0,0,1,4.07,2,8.11,8.11,0,0,1,2.57,2.86,8.85,8.85,0,0,1,.9,4.2,9.41,9.41,0,0,1-1,4.46,8.86,8.86,0,0,1-2.78,3.15,12.56,12.56,0,0,1-4.25,1.87,22.79,22.79,0,0,1-5.41.6,22.24,22.24,0,0,1-15-5.41l1.84-3a14.69,14.69,0,0,0,2.39,2A17.49,17.49,0,0,0,469,623a19.57,19.57,0,0,0,3.65,1.1,20.23,20.23,0,0,0,4.09.4,12.81,12.81,0,0,0,7-1.6,5.37,5.37,0,0,0,2.49-4.86,5.57,5.57,0,0,0-.71-2.91,6,6,0,0,0-2.13-2,14.88,14.88,0,0,0-3.52-1.5c-1.4-.42-3-.84-4.88-1.26s-3.67-.92-5.14-1.41A13.75,13.75,0,0,1,466,607a7.17,7.17,0,0,1-2.28-2.65,8.56,8.56,0,0,1-.76-3.81,10.48,10.48,0,0,1,1-4.59,9.06,9.06,0,0,1,2.75-3.36,13.1,13.1,0,0,1,4.2-2,19,19,0,0,1,5.36-.71,18.27,18.27,0,0,1,6.64,1.13,17.8,17.8,0,0,1,5.28,3.17ZM438.65,627.4V590.13h3.68V627.4Zm-43.57-17h12.18a6.24,6.24,0,0,0,3-.71,7,7,0,0,0,2.28-1.92A9.35,9.35,0,0,0,414,605a9.78,9.78,0,0,0,.52-3.2,9.07,9.07,0,0,0-2.23-5.93,7.73,7.73,0,0,0-2.42-1.84,6.51,6.51,0,0,0-2.91-.69H395.08Zm-3.67,17V590.13h15.75a9.64,9.64,0,0,1,4.44,1,11.62,11.62,0,0,1,3.49,2.67,12.32,12.32,0,0,1,2.28,3.75,11.69,11.69,0,0,1,.81,4.26,12.63,12.63,0,0,1-.6,3.91,12.24,12.24,0,0,1-1.68,3.36,10.35,10.35,0,0,1-2.6,2.52,9.15,9.15,0,0,1-3.41,1.39L419,627.4h-4.15l-8.77-13.76h-11V627.4Zm-41.94-17h11.92a6.22,6.22,0,0,0,3-.71,7.26,7.26,0,0,0,2.29-1.89,8.93,8.93,0,0,0,1.47-2.73,10,10,0,0,0,.53-3.23,9.1,9.1,0,0,0-2.23-6A7.48,7.48,0,0,0,364,594a6.81,6.81,0,0,0-2.92-.66h-11.6Zm-3.67,17V590.13h15.43a9.63,9.63,0,0,1,4.44,1,11.61,11.61,0,0,1,3.49,2.67,12.79,12.79,0,0,1,2.31,3.75,11.39,11.39,0,0,1,.84,4.26,12.69,12.69,0,0,1-.79,4.43,12,12,0,0,1-2.2,3.75,11.18,11.18,0,0,1-3.39,2.63,9.57,9.57,0,0,1-4.38,1H349.47V627.4Zm-43.57-17h12.18a6.23,6.23,0,0,0,3-.71,7.06,7.06,0,0,0,2.28-1.92,9.27,9.27,0,0,0,1.47-2.73,9.78,9.78,0,0,0,.52-3.2,9,9,0,0,0-2.23-5.93,7.73,7.73,0,0,0-2.41-1.84,6.52,6.52,0,0,0-2.91-.69H302.22Zm-3.68,17V590.13H314.3a9.64,9.64,0,0,1,4.44,1,11.61,11.61,0,0,1,3.49,2.67,12.32,12.32,0,0,1,2.28,3.75,11.71,11.71,0,0,1,.81,4.26,12.56,12.56,0,0,1-.6,3.91,12.21,12.21,0,0,1-1.68,3.36,10.31,10.31,0,0,1-2.6,2.52A9.14,9.14,0,0,1,317,613l9.14,14.39H322l-8.77-13.76h-11V627.4Zm-19.89-3.25v3.25h-25V590.13h24.57v3.25H257.29v13.44h18.22v3.1H257.29v14.22Zm-43.57-30.77H221.81v34h-3.67v-34H204.85v-3.25h30.24ZM158.82,597V627.4h-3.68V590.13H158l24.67,31v-31h3.68V627.4h-3.2Zm-23.57,27.2v3.25h-25V590.13h24.57v3.25H113.89v13.44H132.1v3.1H113.89v14.22Z"/><path class="cls-5" d="M575.39,597.12a11.28,11.28,0,0,0-4.2-2.89,15.32,15.32,0,0,0-6-1.1q-4.93,0-7.19,1.87a6.22,6.22,0,0,0-2.26,5.06,5.59,5.59,0,0,0,.6,2.76,5.31,5.31,0,0,0,1.87,1.87,13.1,13.1,0,0,0,3.23,1.36q2,.58,4.64,1.15a50.35,50.35,0,0,1,5.38,1.42,15.29,15.29,0,0,1,4.07,2,8.13,8.13,0,0,1,2.57,2.86,8.9,8.9,0,0,1,.89,4.2,9.41,9.41,0,0,1-1,4.46,8.85,8.85,0,0,1-2.78,3.15,12.57,12.57,0,0,1-4.25,1.87,22.8,22.8,0,0,1-5.41.6,22.23,22.23,0,0,1-15-5.41l1.84-3a14.75,14.75,0,0,0,2.39,2,17.32,17.32,0,0,0,3.1,1.65,19.53,19.53,0,0,0,3.65,1.1,20.25,20.25,0,0,0,4.1.4,12.81,12.81,0,0,0,7-1.6,5.37,5.37,0,0,0,2.49-4.86,5.57,5.57,0,0,0-.71-2.91,6.06,6.06,0,0,0-2.13-2,14.94,14.94,0,0,0-3.51-1.5c-1.4-.42-3-.84-4.89-1.26s-3.67-.92-5.14-1.41A13.76,13.76,0,0,1,555,607a7.2,7.2,0,0,1-2.28-2.65,8.57,8.57,0,0,1-.76-3.81,10.48,10.48,0,0,1,1-4.59,9,9,0,0,1,2.76-3.36,13.1,13.1,0,0,1,4.2-2,18.93,18.93,0,0,1,5.35-.71A18.31,18.31,0,0,1,571.9,591a17.89,17.89,0,0,1,5.28,3.17Zm-40.89,27v3.25h-25V590.13H534v3.25H513.13v13.44h18.22v3.1H513.13v14.22Zm-48.08-27a11.32,11.32,0,0,0-4.2-2.89,15.32,15.32,0,0,0-6-1.1q-4.93,0-7.19,1.87a6.21,6.21,0,0,0-2.26,5.06,5.6,5.6,0,0,0,.6,2.76,5.31,5.31,0,0,0,1.87,1.87,13.11,13.11,0,0,0,3.23,1.36q2,.58,4.65,1.15a50.42,50.42,0,0,1,5.38,1.42,15.28,15.28,0,0,1,4.07,2,8.11,8.11,0,0,1,2.57,2.86,8.85,8.85,0,0,1,.9,4.2,9.41,9.41,0,0,1-1,4.46,8.86,8.86,0,0,1-2.78,3.15,12.56,12.56,0,0,1-4.25,1.87,22.79,22.79,0,0,1-5.41.6,22.24,22.24,0,0,1-15-5.41l1.84-3a14.69,14.69,0,0,0,2.39,2A17.49,17.49,0,0,0,469,623a19.57,19.57,0,0,0,3.65,1.1,20.23,20.23,0,0,0,4.09.4,12.81,12.81,0,0,0,7-1.6,5.37,5.37,0,0,0,2.49-4.86,5.57,5.57,0,0,0-.71-2.91,6,6,0,0,0-2.13-2,14.88,14.88,0,0,0-3.52-1.5c-1.4-.42-3-.84-4.88-1.26s-3.67-.92-5.14-1.41A13.75,13.75,0,0,1,466,607a7.17,7.17,0,0,1-2.28-2.65,8.56,8.56,0,0,1-.76-3.81,10.48,10.48,0,0,1,1-4.59,9.06,9.06,0,0,1,2.75-3.36,13.1,13.1,0,0,1,4.2-2,19,19,0,0,1,5.36-.71,18.27,18.27,0,0,1,6.64,1.13,17.8,17.8,0,0,1,5.28,3.17ZM438.65,627.4V590.13h3.68V627.4Zm-43.57-17h12.18a6.24,6.24,0,0,0,3-.71,7,7,0,0,0,2.28-1.92A9.35,9.35,0,0,0,414,605a9.78,9.78,0,0,0,.52-3.2,9.07,9.07,0,0,0-2.23-5.93,7.73,7.73,0,0,0-2.42-1.84,6.51,6.51,0,0,0-2.91-.69H395.08Zm-3.67,17V590.13h15.75a9.64,9.64,0,0,1,4.44,1,11.62,11.62,0,0,1,3.49,2.67,12.32,12.32,0,0,1,2.28,3.75,11.69,11.69,0,0,1,.81,4.26,12.63,12.63,0,0,1-.6,3.91,12.24,12.24,0,0,1-1.68,3.36,10.35,10.35,0,0,1-2.6,2.52,9.15,9.15,0,0,1-3.41,1.39L419,627.4h-4.15l-8.77-13.76h-11V627.4Zm-41.94-17h11.92a6.22,6.22,0,0,0,3-.71,7.26,7.26,0,0,0,2.29-1.89,8.93,8.93,0,0,0,1.47-2.73,10,10,0,0,0,.53-3.23,9.1,9.1,0,0,0-2.23-6A7.48,7.48,0,0,0,364,594a6.81,6.81,0,0,0-2.92-.66h-11.6Zm-3.67,17V590.13h15.43a9.63,9.63,0,0,1,4.44,1,11.61,11.61,0,0,1,3.49,2.67,12.79,12.79,0,0,1,2.31,3.75,11.39,11.39,0,0,1,.84,4.26,12.69,12.69,0,0,1-.79,4.43,12,12,0,0,1-2.2,3.75,11.18,11.18,0,0,1-3.39,2.63,9.57,9.57,0,0,1-4.38,1H349.47V627.4Zm-43.57-17h12.18a6.23,6.23,0,0,0,3-.71,7.06,7.06,0,0,0,2.28-1.92,9.27,9.27,0,0,0,1.47-2.73,9.78,9.78,0,0,0,.52-3.2,9,9,0,0,0-2.23-5.93,7.73,7.73,0,0,0-2.41-1.84,6.52,6.52,0,0,0-2.91-.69H302.22Zm-3.68,17V590.13H314.3a9.64,9.64,0,0,1,4.44,1,11.61,11.61,0,0,1,3.49,2.67,12.32,12.32,0,0,1,2.28,3.75,11.71,11.71,0,0,1,.81,4.26,12.56,12.56,0,0,1-.6,3.91,12.21,12.21,0,0,1-1.68,3.36,10.31,10.31,0,0,1-2.6,2.52A9.14,9.14,0,0,1,317,613l9.14,14.39H322l-8.77-13.76h-11V627.4Zm-19.89-3.25v3.25h-25V590.13h24.57v3.25H257.29v13.44h18.22v3.1H257.29v14.22Zm-43.57-30.77H221.81v34h-3.67v-34H204.85v-3.25h30.24ZM158.82,597V627.4h-3.68V590.13H158l24.67,31v-31h3.68V627.4h-3.2Zm-23.57,27.2v3.25h-25V590.13h24.57v3.25H113.89v13.44H132.1v3.1H113.89v14.22Z"/><path class="cls-3" d="M111.21,174.31c1.34-56.53,47.68-97.15,121.07-76.84q-99.18,4.19-121.07,76.84"/></svg>