<svg id="Layer_1" data-name="Layer 1" xmlns="http://www.w3.org/2000/svg" viewBox="0 0 718.85 693.35"><defs><style>.cls-1{fill:#ed1c24;}.cls-1,.cls-2,.cls-3{fill-rule:evenodd;}.cls-2,.cls-4{fill:#fff;}.cls-3{fill:#231f20;}.cls-5{fill:none;stroke:#fff;stroke-miterlimit:2.61;stroke-width:0.22px;}</style></defs><title>yaqoobsons-logo</title><path class="cls-1" d="M353,17.82c181.62,0,328.85,147.23,328.85,328.86S534.64,675.53,353,675.53,24.17,528.3,24.17,346.68,171.4,17.82,353,17.82"/><path class="cls-2" d="M353,145.48c111.12,0,201.2,90.07,201.2,201.19S464.14,547.87,353,547.87,151.83,457.79,151.83,346.68,241.91,145.48,353,145.48"/><path class="cls-3" d="M301.49,300c15.36-24.18,66.09-25.43,100.34-5.59l-30,54.62c-41-14.31-76.29-29.28-70.36-49m113.8,128.54c12.68-22.65-12.51-34.7-46-44.45q-.13,29.72-.26,59.44C386,442.13,403.14,441,415.29,428.56Zm-179-194.32q-.17-3.3-.34-6.59h94.88v10.09c-24.3.74-27.47,13.45-17.16,33.82C346,264,377.71,267.65,409,277.62c12.31-28.44,3-36.8-14.13-37.85v-8.58h75.2v10.09c-21.34,1.84-30,13.61-36.34,27.26h7.06q.25,32.3.5,64.6h-9.59c-5.15-15-10.94-23.53-17.16-27.76l-28.77,48.45c45.5,8.25,71.29,25.18,71.37,55.13-5.48,25.17-21.17,47.17-89,53-1.72,17.27,8.86,25.16,29.65,25.29V496l-94.32-1v-8.26c20.32,1.49,30.09-8.74,31.12-28.68l-36.95-7.78c-12.92-3.38-21.91-.35-26.25,10.21H261.26q.49-34,1-68.06l12.64,1c3.38,30.28,32.12,45.25,59.8,48.63.32-18.15.65-33.39,1-51.54l-6.81-20.91c-66.05-24.11-86.76-58.28-47.65-86.54C271.31,261,261.35,239,236.27,234.25Z"/><path class="cls-4" d="M449.63,545l31.56,69.81-14.14,6.39L435.5,551.4Zm78.17.93-9,7.07c-5.83,4.58-9.27,7.69-10.34,9.33a8.31,8.31,0,0,0-1.4,5.23,9.94,9.94,0,0,0,2.32,5.5,9.3,9.3,0,0,0,5.49,3.65,9.41,9.41,0,0,0,6.42-1.24q1.65-1,9-6.76l9.49-7.46ZM512.7,501.61,560,561.85,534.42,582q-9.66,7.59-15.32,9.4a17.54,17.54,0,0,1-11.54-.25,22.18,22.18,0,0,1-10.1-7.42q-5.33-6.79-4.83-14.32t7.5-14.9a35.14,35.14,0,0,1-10.45,0q-4.73-.74-14.59-4.37l-16.58-6,14.54-11.43,19.06,6.3q10.19,3.32,13.38,3.78a12,12,0,0,0,5.62-.38,26,26,0,0,0,6.69-4.17l2.47-1.94L500.5,511.19Zm47.56-13.33,29.62,6.34-18.29-24Zm-40.89,7.47,9-14.07,18.25,3.85,16.59-25.87L552,444.88l8.86-13.81,48.44,66.39-8.85,13.8ZM575.73,362.3l74.65,17.23-3.49,15.12-29.4-6.78-6.78,29.4L640.1,424l-3.49,15.12L562,421.94l3.49-15.12,32.64,7.54,6.78-29.41-32.63-7.53Zm-7.55-71.53,76-9.66,7.15,56.26L638.48,339l-5.2-40.87-16.88,2.14,4.83,38-12.85,1.63-4.83-38L583,304.53l5.38,42.36-12.85,1.63ZM547.65,243l55.69-59.33L611,198.55l-41.6,43.17,59-9.23,7.51,14.67-80.61,10.67ZM478.47,133.28l12.79,8.15c-2.4,4.53-3.25,8.55-2.54,12.13s2.91,6.8,6.6,9.7q5.85,4.59,10.77,4.45a9.41,9.41,0,0,0,7.53-3.47,7,7,0,0,0,1.62-4.63,12.54,12.54,0,0,0-2.32-6q-1.53-2.42-7.62-10.25-7.82-10.1-9-16.74a20.29,20.29,0,0,1,13.41-23.1,20.8,20.8,0,0,1,12.31-.22,38,38,0,0,1,13.48,7.19q11.29,8.87,13.06,18.38c1.18,6.35-.33,12.38-4.53,18.12l-12.53-9.17q2.89-5.28,1.94-9.31c-.63-2.7-2.64-5.39-6-8.05s-6.83-4.19-10-4.28a5.65,5.65,0,0,0-4.87,2.25,5.87,5.87,0,0,0-1.07,5.08q.76,3.75,8,12.81t9.68,14.61A21.5,21.5,0,0,1,531,162.27a22.87,22.87,0,0,1-5.14,11.48,22.57,22.57,0,0,1-10.5,7.44,21.83,21.83,0,0,1-13.41.33q-7-1.93-14.84-8.1-11.42-9-13.4-19.06T478.47,133.28Zm-84.6-5.58,24.55-72.57,14.23,4.81,13.41,58.74L462.52,70l13.58,4.59L451.55,147.2l-14.68-5L423.59,84.58l-16.14,47.71ZM322,88.55q.32,13,6.52,19.6a20.73,20.73,0,0,0,30.51-.72q5.77-6.83,5.43-20.17-.33-13.18-6.29-19.52t-15.53-6.1q-9.57.24-15.27,7T322,88.55Zm-15.93.92q-.3-11.71,3-19.77A35.78,35.78,0,0,1,316,59a30.13,30.13,0,0,1,9.72-7.17,42.27,42.27,0,0,1,16.45-3.45q17-.43,27.38,9.84t10.9,29q.47,18.58-9.36,29.33t-26.71,11.18q-17.09.43-27.45-9.76T306.1,89.48Zm-76,41.93,13.49-6.93c2.7,4.37,5.74,7.13,9.19,8.33s7.34.92,11.7-.8q6.92-2.73,9.28-7.05a9.41,9.41,0,0,0,.81-8.25A7.06,7.06,0,0,0,271.4,113a12.5,12.5,0,0,0-6.37-1c-1.91.06-6.13.54-12.69,1.4q-12.66,1.66-19-.7A20.3,20.3,0,0,1,220.2,89.38a20.74,20.74,0,0,1,6-10.73,38.05,38.05,0,0,1,13-8q13.36-5.27,22.46-2c6.08,2.19,10.51,6.54,13.36,13.07L260.81,87.9q-3.1-5.16-7.06-6.38c-2.64-.82-6-.44-10,1.14s-7.06,3.78-8.72,6.43a5.64,5.64,0,0,0-.52,5.34,5.89,5.89,0,0,0,3.85,3.49q3.63,1.24,15.08-.41c7.63-1.11,13.47-1.41,17.5-1a21.48,21.48,0,0,1,10.72,4.15A22.79,22.79,0,0,1,289,110.92a22.54,22.54,0,0,1,1.13,12.82,21.88,21.88,0,0,1-6.49,11.74q-5.19,5.07-14.49,8.72-13.51,5.33-23.21,1.94T230.12,131.41ZM150.17,193l15.53,13.45,9.39-10.84a72.13,72.13,0,0,0,6.6-8.33A9.61,9.61,0,0,0,183,181a9.5,9.5,0,0,0-3.51-5.92,9.93,9.93,0,0,0-5.53-2.58,9.44,9.44,0,0,0-5.82,1.35q-2.89,1.67-9.83,9.66Zm-23-19.9,13.34,11.56,6.63-7.65q5.9-6.82,7.14-8.65a10.17,10.17,0,0,0,2-6.51,8.07,8.07,0,0,0-3-5.61,8.42,8.42,0,0,0-5.64-2.29,8.81,8.81,0,0,0-5.83,2.65q-1.71,1.56-8.84,9.8Zm-19.78,3.39,20.06-23.15a88.77,88.77,0,0,1,9.45-9.77,20.3,20.3,0,0,1,7.63-4,19.64,19.64,0,0,1,8.68-.27,17.32,17.32,0,0,1,8.31,4.08,18.09,18.09,0,0,1,5.49,19,20.23,20.23,0,0,1,12.3-3.55,18.53,18.53,0,0,1,11.2,4.75,22.82,22.82,0,0,1,6.11,8.5,20.53,20.53,0,0,1,1.63,10.21,22.07,22.07,0,0,1-4,10.23q-2.22,3.17-11.82,14.44l-17.09,19.72ZM102.29,280q12.34,4.18,20.65.62a20.73,20.73,0,0,0,9.83-28.89q-4.43-7.77-17.07-12t-20.49-.81q-8,3.39-11.08,12.48t1.27,16.74Q89.76,275.73,102.29,280Zm-4.62,15.27q-11.1-3.75-17.52-9.64a35.86,35.86,0,0,1-7.68-10.13,30.15,30.15,0,0,1-3.38-11.6,42.29,42.29,0,0,1,2.43-16.63q5.44-16.06,18.66-22.32t31-.25q17.61,6,24.32,18.89t1.3,28.93q-5.48,16.19-18.62,22.41T97.67,295.24Zm-2.81,80.85q13-.33,19.6-6.53a20.73,20.73,0,0,0-.71-30.5q-6.84-5.76-20.17-5.43t-19.52,6.29q-6.35,5.95-6.1,15.53t7,15.28Q81.63,376.42,94.86,376.09ZM95.78,392q-11.71.29-19.77-3a35.91,35.91,0,0,1-10.7-6.87,30.15,30.15,0,0,1-7.17-9.72A42.3,42.3,0,0,1,54.7,356q-.43-17,9.83-27.38t29-10.9q18.59-.47,29.33,9.36t11.18,26.71q.43,17.08-9.76,27.45T95.78,392Zm32,36.32a23.48,23.48,0,0,0-9.57-.57,40.31,40.31,0,0,0-11,3.35Q95,436.61,91.46,444.64a19.56,19.56,0,0,0,.32,16.65q3.9,8.63,12.33,11.26t20.52-2.82q12.26-5.54,15.92-13.66a19,19,0,0,0,0-16.31,18.15,18.15,0,0,0-3.61-5.31,44.19,44.19,0,0,0-.42,10.66l-10-.25A52.42,52.42,0,0,1,127.74,428.34Zm2.82-14.9a49.71,49.71,0,0,0,.82-13.93l12.39.65a34.74,34.74,0,0,1,.18,7.41c0,.54-.68,4.59-2,12.17a41.11,41.11,0,0,1,9.87,13.83q7.28,16.09,1.91,29.51t-22.56,21.18Q114,492,100.39,487.17t-20.73-20.5q-7-15.52-1.61-28.92t22.52-21.14a50.52,50.52,0,0,1,17.07-4.67A36.3,36.3,0,0,1,130.55,413.44Zm36.13,101.32L153.51,542,181.17,530Zm2.43-41.49,11.53,12.09-8.06,16.83,21.2,22.24,17-7.43,11.32,11.88-76,31.33-11.31-11.86Zm84.36,70.16-14.7,28.7,4.77,52.3-16.14-8.26-2.3-35.27-29.53,19-15.84-8.11L225,565l14.65-28.6Z"/><path class="cls-5" d="M449.63,545l31.56,69.81-14.14,6.39L435.5,551.4Zm78.17.93-9,7.07c-5.83,4.58-9.27,7.69-10.34,9.33a8.31,8.31,0,0,0-1.4,5.23,9.94,9.94,0,0,0,2.32,5.5,9.3,9.3,0,0,0,5.49,3.65,9.41,9.41,0,0,0,6.42-1.24q1.65-1,9-6.76l9.49-7.46ZM512.7,501.61,560,561.85,534.42,582q-9.66,7.59-15.32,9.4a17.54,17.54,0,0,1-11.54-.25,22.18,22.18,0,0,1-10.1-7.42q-5.33-6.79-4.83-14.32t7.5-14.9a35.14,35.14,0,0,1-10.45,0q-4.73-.74-14.59-4.37l-16.58-6,14.54-11.43,19.06,6.3q10.19,3.32,13.38,3.78a12,12,0,0,0,5.62-.38,26,26,0,0,0,6.69-4.17l2.47-1.94L500.5,511.19Zm47.56-13.33,29.62,6.34-18.29-24Zm-40.89,7.47,9-14.07,18.25,3.85,16.59-25.87L552,444.88l8.86-13.81,48.44,66.39-8.85,13.8ZM575.73,362.3l74.65,17.23-3.49,15.12-29.4-6.78-6.78,29.4L640.1,424l-3.49,15.12L562,421.94l3.49-15.12,32.64,7.54,6.78-29.41-32.63-7.53Zm-7.55-71.53,76-9.66,7.15,56.26L638.48,339l-5.2-40.87-16.88,2.14,4.83,38-12.85,1.63-4.83-38L583,304.53l5.38,42.36-12.85,1.63ZM547.65,243l55.69-59.33L611,198.55l-41.6,43.17,59-9.23,7.51,14.67-80.61,10.67ZM478.47,133.28l12.79,8.15c-2.4,4.53-3.25,8.55-2.54,12.13s2.91,6.8,6.6,9.7q5.85,4.59,10.77,4.45a9.41,9.41,0,0,0,7.53-3.47,7,7,0,0,0,1.62-4.63,12.54,12.54,0,0,0-2.32-6q-1.53-2.42-7.62-10.25-7.82-10.1-9-16.74a20.29,20.29,0,0,1,13.41-23.1,20.8,20.8,0,0,1,12.31-.22,38,38,0,0,1,13.48,7.19q11.29,8.87,13.06,18.38c1.18,6.35-.33,12.38-4.53,18.12l-12.53-9.17q2.89-5.28,1.94-9.31c-.63-2.7-2.64-5.39-6-8.05s-6.83-4.19-10-4.28a5.65,5.65,0,0,0-4.87,2.25,5.87,5.87,0,0,0-1.07,5.08q.76,3.75,8,12.81t9.68,14.61A21.5,21.5,0,0,1,531,162.27a22.87,22.87,0,0,1-5.14,11.48,22.57,22.57,0,0,1-10.5,7.44,21.83,21.83,0,0,1-13.41.33q-7-1.93-14.84-8.1-11.42-9-13.4-19.06T478.47,133.28Zm-84.6-5.58,24.55-72.57,14.23,4.81,13.41,58.74L462.52,70l13.58,4.59L451.55,147.2l-14.68-5L423.59,84.58l-16.14,47.71ZM322,88.55q.32,13,6.52,19.6a20.73,20.73,0,0,0,30.51-.72q5.77-6.83,5.43-20.17-.33-13.18-6.29-19.52t-15.53-6.1q-9.57.24-15.27,7T322,88.55Zm-15.93.92q-.3-11.71,3-19.77A35.78,35.78,0,0,1,316,59a30.13,30.13,0,0,1,9.72-7.17,42.27,42.27,0,0,1,16.45-3.45q17-.43,27.38,9.84t10.9,29q.47,18.58-9.36,29.33t-26.71,11.18q-17.09.43-27.45-9.76T306.1,89.48Zm-76,41.93,13.49-6.93c2.7,4.37,5.74,7.13,9.19,8.33s7.34.92,11.7-.8q6.92-2.73,9.28-7.05a9.41,9.41,0,0,0,.81-8.25A7.06,7.06,0,0,0,271.4,113a12.5,12.5,0,0,0-6.37-1c-1.91.06-6.13.54-12.69,1.4q-12.66,1.66-19-.7A20.3,20.3,0,0,1,220.2,89.38a20.74,20.74,0,0,1,6-10.73,38.05,38.05,0,0,1,13-8q13.36-5.27,22.46-2c6.08,2.19,10.51,6.54,13.36,13.07L260.81,87.9q-3.1-5.16-7.06-6.38c-2.64-.82-6-.44-10,1.14s-7.06,3.78-8.72,6.43a5.64,5.64,0,0,0-.52,5.34,5.89,5.89,0,0,0,3.85,3.49q3.63,1.24,15.08-.41c7.63-1.11,13.47-1.41,17.5-1a21.48,21.48,0,0,1,10.72,4.15A22.79,22.79,0,0,1,289,110.92a22.54,22.54,0,0,1,1.13,12.82,21.88,21.88,0,0,1-6.49,11.74q-5.19,5.07-14.49,8.72-13.51,5.33-23.21,1.94T230.12,131.41ZM150.17,193l15.53,13.45,9.39-10.84a72.13,72.13,0,0,0,6.6-8.33A9.61,9.61,0,0,0,183,181a9.5,9.5,0,0,0-3.51-5.92,9.93,9.93,0,0,0-5.53-2.58,9.44,9.44,0,0,0-5.82,1.35q-2.89,1.67-9.83,9.66Zm-23-19.9,13.34,11.56,6.63-7.65q5.9-6.82,7.14-8.65a10.17,10.17,0,0,0,2-6.51,8.07,8.07,0,0,0-3-5.61,8.42,8.42,0,0,0-5.64-2.29,8.81,8.81,0,0,0-5.83,2.65q-1.71,1.56-8.84,9.8Zm-19.78,3.39,20.06-23.15a88.77,88.77,0,0,1,9.45-9.77,20.3,20.3,0,0,1,7.63-4,19.64,19.64,0,0,1,8.68-.27,17.32,17.32,0,0,1,8.31,4.08,18.09,18.09,0,0,1,5.49,19,20.23,20.23,0,0,1,12.3-3.55,18.53,18.53,0,0,1,11.2,4.75,22.82,22.82,0,0,1,6.11,8.5,20.53,20.53,0,0,1,1.63,10.21,22.07,22.07,0,0,1-4,10.23q-2.22,3.17-11.82,14.44l-17.09,19.72ZM102.29,280q12.34,4.18,20.65.62a20.73,20.73,0,0,0,9.83-28.89q-4.43-7.77-17.07-12t-20.49-.81q-8,3.39-11.08,12.48t1.27,16.74Q89.76,275.73,102.29,280Zm-4.62,15.27q-11.1-3.75-17.52-9.64a35.86,35.86,0,0,1-7.68-10.13,30.15,30.15,0,0,1-3.38-11.6,42.29,42.29,0,0,1,2.43-16.63q5.44-16.06,18.66-22.32t31-.25q17.61,6,24.32,18.89t1.3,28.93q-5.48,16.19-18.62,22.41T97.67,295.24Zm-2.81,80.85q13-.33,19.6-6.53a20.73,20.73,0,0,0-.71-30.5q-6.84-5.76-20.17-5.43t-19.52,6.29q-6.35,5.95-6.1,15.53t7,15.28Q81.63,376.42,94.86,376.09ZM95.78,392q-11.71.29-19.77-3a35.91,35.91,0,0,1-10.7-6.87,30.15,30.15,0,0,1-7.17-9.72A42.3,42.3,0,0,1,54.7,356q-.43-17,9.83-27.38t29-10.9q18.59-.47,29.33,9.36t11.18,26.71q.43,17.08-9.76,27.45T95.78,392Zm32,36.32a23.48,23.48,0,0,0-9.57-.57,40.31,40.31,0,0,0-11,3.35Q95,436.61,91.46,444.64a19.56,19.56,0,0,0,.32,16.65q3.9,8.63,12.33,11.26t20.52-2.82q12.26-5.54,15.92-13.66a19,19,0,0,0,0-16.31,18.15,18.15,0,0,0-3.61-5.31,44.19,44.19,0,0,0-.42,10.66l-10-.25A52.42,52.42,0,0,1,127.74,428.34Zm2.82-14.9a49.71,49.71,0,0,0,.82-13.93l12.39.65a34.74,34.74,0,0,1,.18,7.41c0,.54-.68,4.59-2,12.17a41.11,41.11,0,0,1,9.87,13.83q7.28,16.09,1.91,29.51t-22.56,21.18Q114,492,100.39,487.17t-20.73-20.5q-7-15.52-1.61-28.92t22.52-21.14a50.52,50.52,0,0,1,17.07-4.67A36.3,36.3,0,0,1,130.55,413.44Zm36.13,101.32L153.51,542,181.17,530Zm2.43-41.49,11.53,12.09-8.06,16.83,21.2,22.24,17-7.43,11.32,11.88-76,31.33-11.31-11.86Zm84.36,70.16-14.7,28.7,4.77,52.3-16.14-8.26-2.3-35.27-29.53,19-15.84-8.11L225,565l14.65-28.6Z"/></svg>