<svg id="Layer_1" data-name="Layer 1" xmlns="http://www.w3.org/2000/svg" viewBox="0 0 1000 1000"><defs><style>.cls-1,.cls-3{fill:#008641;}.cls-1,.cls-2{fill-rule:evenodd;}.cls-2,.cls-4{fill:#f68c1f;}</style></defs><title>yg-circle-color</title><path class="cls-1" d="M662.27,190.41c-44.58,22-74.27,56-98.71,97.09A540.69,540.69,0,0,0,523.09,372C502,427.71,487.43,491.4,479.49,561c-12-129-37.61-197.28-126.51-222.78,57.41,4.73,100.38,27.33,125.94,71.5,28-109.57,110.36-210.39,183.36-219.3"/><path class="cls-2" d="M479.08,561.25c132.93,0,243.51,36.11,262.05,82.86C699.5,607.19,598,581,480,581c-120.71,0-224.07,27.36-263.86,65.59,15.52-48,127.66-85.36,263-85.36"/><path class="cls-3" d="M678.12,688.07q-6.67-8.44-19-8.44-13.34,0-17.81,8.44H641V661.28H623.31v76.27H641V730.9h.32q5.51,8.33,17.6,8.33,12.5,0,19.29-8.65,6.14-7.91,6.15-21.41Q684.38,695.87,678.12,688.07Zm-24.65,37.87q-12.45,0-12.45-16.35,0-16.67,12.45-16.67t12.45,16.56Q665.92,725.94,653.48,725.94Z"/><path class="cls-3" d="M583.85,679.42q-31.44,0-31.44,29.64,0,30.17,31.44,30.17,31.12,0,31.12-30T583.85,679.42Zm0,47.47q-12.76,0-12.77-17.83,0-17.3,12.77-17.3,12.45,0,12.45,17.51T583.85,726.89Z"/><path class="cls-3" d="M515.81,679.42q-31.43,0-31.44,29.64,0,30.17,31.44,30.17,31.12,0,31.12-30T515.81,679.42Zm0,47.47q-12.76,0-12.77-17.83,0-17.3,12.77-17.3,12.45,0,12.45,17.51T515.81,726.89Z"/><path class="cls-3" d="M458.33,681v7H458q-5.41-8.33-17.81-8.33-12.08,0-18.76,8.33-6.36,7.91-6.37,21.73,0,13.19,6.15,21.1,6.56,8.44,19,8.44,13,0,17.81-8.44h.32v27h17.72V681ZM446,725.94q-12.45,0-12.45-16.56t12.34-16.46q12.45,0,12.45,16.35Q458.33,725.94,446,725.94Z"/><path class="cls-3" d="M409.26,733.33c-.07.07-.53-.07-1.37-.42q-1.9-.95-1.9-5V698q0-9.71-5.59-13.92-6.12-4.65-20.68-4.64-15.3,0-22,4.75-6.23,4.43-7,14.35H367.8q.53-8.12,11.18-8.12,9.6,0,9.6,6.12,0,3.06-1.37,4.38t-5.27,1.85q-.85,0-15.09,1.69-19.1,2.21-19.09,17.51,0,17.3,20.78,17.3,13.93,0,20.47-8h.21l.21,1.48a5.63,5.63,0,0,0,3.58,5.59q1.16,0,9-.37l7.75-.37Q409.58,735.44,409.26,733.33Zm-20.68-16.77a9.55,9.55,0,0,1-4.2,8.44,16.47,16.47,0,0,1-9.55,2.53q-8.41,0-8.4-7.07,0-6.33,7.14-7.59l8.3-1.27a23.73,23.73,0,0,0,6.72-1.8Z"/><polygon class="cls-1" points="347.02 662.23 319.81 710.44 319.81 737.55 300.19 737.55 300.19 710.44 272.87 662.23 295.12 662.23 309.89 693.56 310 693.56 324.97 662.23 347.02 662.23"/><path class="cls-4" d="M599,787.09a16.74,16.74,0,0,0-13-6,15.77,15.77,0,0,0-8,2.08,16,16,0,0,0-5.71,5.39v-6.46H561.38v60.74H573V820.65a22.72,22.72,0,0,0,6.24,5,15,15,0,0,0,6.62,1.44A16.79,16.79,0,0,0,598.92,821q5.37-6.11,5.37-17.12Q604.3,793.1,599,787.09Zm-9.19,27.49a8.41,8.41,0,0,1-6.74,3.25,9,9,0,0,1-7.17-3.55c-2-2.35-2.94-6-2.94-10.94q0-6.47,2.81-9.76a8.91,8.91,0,0,1,7.09-3.29,8.59,8.59,0,0,1,6.87,3.35q2.78,3.35,2.79,10.28C592.46,808.85,591.56,812.42,589.76,814.58Z"/><path class="cls-2" d="M538.85,826.08v-6.59a17.19,17.19,0,0,1-6.32,5.56,17.89,17.89,0,0,1-8.27,2,16.26,16.26,0,0,1-7.95-1.93,11.61,11.61,0,0,1-5.1-5.47,24.54,24.54,0,0,1-1.57-9.74V782.08h11.64v20.21q0,9.29.65,11.38a6.21,6.21,0,0,0,2.33,3.31,7.17,7.17,0,0,0,4.31,1.22,9.15,9.15,0,0,0,5.35-1.63,8.41,8.41,0,0,0,3.22-4.06q.87-2.44.88-11.88V782.08h11.63v44Z"/><path class="cls-4" d="M494.39,787.57Q488,781.08,478,781.08a24,24,0,0,0-11.71,2.87,19.63,19.63,0,0,0-8.1,8.27,24,24,0,0,0-2.86,11.23,26.84,26.84,0,0,0,2.86,12.87,18.8,18.8,0,0,0,8.36,8,25.49,25.49,0,0,0,11.54,2.73,21.75,21.75,0,0,0,16.22-6.56A22.71,22.71,0,0,0,500.77,804Q500.77,794.05,494.39,787.57Zm-8.68,26.53a10.15,10.15,0,0,1-15.3,0c-2.08-2.32-3.11-5.65-3.11-10s1-7.7,3.11-10a10.16,10.16,0,0,1,15.3,0q3.1,3.48,3.1,9.94Q488.81,810.63,485.71,814.1Z"/><path class="cls-2" d="M436.19,826.08H424.55v-44h10.8v6.25q2.78-4.43,5-5.84a9.25,9.25,0,0,1,5-1.41,14.73,14.73,0,0,1,7.66,2.2l-3.61,10.14a10.24,10.24,0,0,0-5.46-1.89,6.4,6.4,0,0,0-4.15,1.34c-1.14.89-2,2.52-2.67,4.86s-1,7.27-1,14.75Z"/><path class="cls-2" d="M387.39,803.75V793.51h26.43v24.2a33.32,33.32,0,0,1-11.17,6.57,40.84,40.84,0,0,1-14.81,2.83,33.34,33.34,0,0,1-16.62-4,25.43,25.43,0,0,1-10.65-11.44A36.93,36.93,0,0,1,357,795.5a35.11,35.11,0,0,1,4-16.87,26.77,26.77,0,0,1,11.65-11.3q5.83-3,14.54-3,11.3,0,17.66,4.74A21.44,21.44,0,0,1,413,782.17l-12.18,2.28a12.91,12.91,0,0,0-4.84-7.07,14.58,14.58,0,0,0-8.84-2.59q-8,0-12.78,5.09T369.65,795q0,10.8,4.81,16.22a16,16,0,0,0,12.58,5.4,21.21,21.21,0,0,0,7.74-1.51,26.7,26.7,0,0,0,6.65-3.66v-7.71Z"/><path class="cls-1" d="M725.28,931.24l-32.66-54.35,10.68-6.42,44.05,22.93-21.81-36.29,10.2-6.13,32.66,54.35-11,6.62-43.2-22.28,21.3,35.44Zm-55.84-3-16.92-18.54.88,25Zm31.26,14.42-12.92,5.22-10.53-11.28-23.5,9.5.55,15.32-12.59,5.09-.85-68,12.55-5.07ZM595.85,976.56l-12.74-51.11L564.86,930l-2.6-10.42,48.89-12.19,2.6,10.42-18.21,4.54,12.74,51.11ZM499,965.28l12.41-1.66q1.33,6.24,4.88,9.06c2.35,1.87,5.47,2.75,9.37,2.61,4.12-.14,7.2-1.12,9.22-3a7.76,7.76,0,0,0,2.93-6.22,5.71,5.71,0,0,0-1.46-3.77,10.25,10.25,0,0,0-4.7-2.58c-1.51-.48-5-1.27-10.34-2.42q-10.38-2.18-14.65-5.76a16.64,16.64,0,0,1-3.86-21.7,17.27,17.27,0,0,1,7.68-6.69,31.91,31.91,0,0,1,12.39-2.64c8-.28,14,1.25,18.15,4.59a18.54,18.54,0,0,1,6.82,13.75l-12.77,1c-.66-3.24-1.92-5.55-3.77-6.9s-4.58-2-8.17-1.86-6.62,1-8.66,2.59a4.61,4.61,0,0,0-1.9,4,4.85,4.85,0,0,0,2,3.79q2.48,2,11.9,3.83t14,4.07a18,18,0,0,1,7.24,6.2,18.92,18.92,0,0,1,2.87,10,18.56,18.56,0,0,1-2.67,10.3,18.09,18.09,0,0,1-8.31,7.36,35.76,35.76,0,0,1-13.71,2.8q-12,.42-18.65-4.9T499,965.28Zm-41.25,18.59,5.52-63.16L476,921.82,470.48,985ZM374.85,969l15.34-61.53,12.42,3.1-6.81,27.32,31.91-21.06,16.7,4.16-29.14,18.19,15.06,43.65-16.07-4-9.7-33.09-12.65,7.77-4.63,18.59Zm-38.72-39.08.71-25.09-16.75,18.61ZM348.59,962l-12.92-5.22.26-15.43-23.5-9.5-10.24,11.4-12.59-5.09,46.65-49.54,12.55,5.07Zm-76.23-94.73-9.79,15.08,5.87,3.81q6.35,4.12,9,4.68a8.39,8.39,0,0,0,5.05-.43,8.58,8.58,0,0,0,3.9-3.35,8.22,8.22,0,0,0,1.4-5.9A8.83,8.83,0,0,0,285,876a60.94,60.94,0,0,0-7.49-5.37Zm-39.42,37.2,34.53-53.18,17.22,11.18q9.79,6.36,12.24,9.09a16.61,16.61,0,0,1,4.29,10.18q.47,6-3.64,12.35a20.57,20.57,0,0,1-7.13,7.08,17.43,17.43,0,0,1-7.93,2.31,18.53,18.53,0,0,1-7.19-1.1,73,73,0,0,1-11.64-6.47l-7-4.54-13,20.06Z"/><path class="cls-2" d="M888.25,694.8,882,709.18q-7.56-2.6-12.86-.6c-3.52,1.32-6.47,4.1-8.83,8.36-2.5,4.5-3.44,8.44-2.77,11.78a9.72,9.72,0,0,0,4.78,7.15,7.18,7.18,0,0,0,5,.86q2.54-.46,5.8-3.37c1.48-1.31,4.56-4.5,9.25-9.53q9-9.72,15.62-12a20.81,20.81,0,0,1,25.75,9.84A21.62,21.62,0,0,1,926,734.23a39.94,39.94,0,0,1-5.16,15q-7.25,13.08-16.62,16.5t-19.13-1.55l7.15-14.34c3.9,1.38,7.18,1.51,9.83.4s5.07-3.63,7.26-7.57,3.21-7.73,2.8-11a5.76,5.76,0,0,0-3.06-4.61,6.07,6.07,0,0,0-5.37-.25q-3.69,1.41-11.77,10.3t-13.37,12.35a22.45,22.45,0,0,1-11.31,3.76,23.66,23.66,0,0,1-12.58-3.36,23.26,23.26,0,0,1-9.33-9.5,22.66,22.66,0,0,1-2.54-13.66q.81-7.47,5.84-16.51,7.29-13.16,17.27-16.84T888.25,694.8Zm4.52-77.17,74,28.42-21.07,54.89-12.53-4.81,15.33-39.94-16.41-6.3-14.27,37.17-12.47-4.79,14.27-37.17-20.15-7.73-15.87,41.36-12.48-4.79Zm6-31.15L976.34,603,973,618.63l-77.58-16.49Zm9.62-77.87,79.12,5.53-1.09,15.55-55.09,28.69,52.83,3.69-1,14.85L904,571.39l1.12-16,53.83-28.28-51.6-3.61Zm30.41-40.8,28.37-13.45-30.26-8.1Zm-28.68,32.11-1.52-17.37,17.35-8.47-2.77-31.58-18.52-4.94-1.48-16.92,81.7,23.86,1.48,16.87ZM953,361.25l-21.51,6.58L934,376.2q2.77,9.06,4.89,11.76a10.58,10.58,0,0,0,5.19,3.65,10.71,10.71,0,0,0,6.43-.08,10.25,10.25,0,0,0,6.09-4.52,11,11,0,0,0,1.48-7.17,76.34,76.34,0,0,0-2.85-11.18Zm-67.69,4L961.12,342l7.51,24.56q4.27,14,4.42,18.56a20.79,20.79,0,0,1-4.07,13.2q-4.38,6.14-13.42,8.91a25.73,25.73,0,0,1-12.52,1,21.79,21.79,0,0,1-9.46-4.15,23.18,23.18,0,0,1-6-6.83,91.23,91.23,0,0,1-6-15.56l-3-10L890,380.52Zm-40-83.88,70-37.23,11.25,21.16-41,38.1L940,290.51l11.28,21.21-70,37.23-7-13.12,55.12-29.31-62.52,15.4-7.24-13.61,47.76-43.17-55.12,29.31ZM830.38,198q-10.16,8.84-11.33,18.09a20.29,20.29,0,0,0,5.13,16.48,20.07,20.07,0,0,0,15.52,7.33q9.22.1,19.63-8.94t11.45-17.85q1.14-8.91-5.36-16.38t-15.61-7.6Q840.73,189,830.38,198Zm-11.22-12.09q9.16-8,17.73-10.62a37.61,37.61,0,0,1,13.06-1.56,31.08,31.08,0,0,1,12.1,3.06,43.32,43.32,0,0,1,13.59,10.85q11.5,13.23,10.19,28.31t-15.91,27.77q-14.51,12.61-29.54,11.84t-26.48-13.95q-11.61-13.36-10.33-28.31T819.16,185.86ZM787.34,171.3l9.2,13.42q-10.82,8-21.24,7.9t-20.48-8q-12.44-9.72-13.82-24.48t10.15-29.52q12.19-15.61,27-17.94t27.93,7.92q11.46,9,13.33,21.33c.77,4.89-.1,10.39-2.59,16.51L802,151.65a16.36,16.36,0,0,0-5-20.78A18,18,0,0,0,781.84,127q-8.21,1.6-16.94,12.78Q755.64,151.68,756,160a17.52,17.52,0,0,0,7.14,13.68,16,16,0,0,0,11.16,3.56C778.35,177,782.71,175,787.34,171.3ZM642,118.17l32.26-72.45L724,67.84,718.49,80.1l-35-15.6-7.63,17.14,30.25,13.46-5.46,12.26L670.36,93.91l-13.71,30.78ZM579.7,60.51q-2.8,13.17,1.84,21.27a20.28,20.28,0,0,0,14,10.08,20.06,20.06,0,0,0,16.81-3.49q7.42-5.47,10.3-19t-1.6-21.15q-4.46-7.8-14.14-9.85t-17,3.33Q582.56,47.12,579.7,60.51Zm-16.24-2.9q2.52-11.87,7.77-19.15a37.65,37.65,0,0,1,9.49-9.1,31.09,31.09,0,0,1,11.51-4.84A43.37,43.37,0,0,1,609.6,25q17.15,3.64,25.17,16.47t4,31.76q-4,18.8-16.47,27.23t-29.54,4.8q-17.32-3.68-25.28-16.4T563.45,57.6Zm-92.62-30.1L471.23,50l8.75-.15c6.31-.11,10.54-.59,12.64-1.46a10.55,10.55,0,0,0,4.93-4,10.73,10.73,0,0,0,1.7-6.2,10.27,10.27,0,0,0-2.67-7.1,11,11,0,0,0-6.49-3.4,75.79,75.79,0,0,0-11.53-.34ZM456,93.66l-1.38-79.3,25.68-.45q14.6-.25,19.05.87a20.76,20.76,0,0,1,11.57,7.55q4.7,5.91,4.87,15.36A25.72,25.72,0,0,1,513.32,50a21.78,21.78,0,0,1-6.6,7.95,23.26,23.26,0,0,1-8.22,3.89,91.45,91.45,0,0,1-16.6,1.44l-10.43.18L472,93.38ZM360,33.57l15.6-3.6,9.66,41.85c1.53,6.64,2.73,10.91,3.56,12.79a12.84,12.84,0,0,0,6.53,6.51q4.44,2,11,.5t9.4-5A10.92,10.92,0,0,0,418.25,79a88,88,0,0,0-2.35-13.29L406,22.95l15.6-3.6L431,59.94q3.22,13.92,3.28,20a22.4,22.4,0,0,1-2.42,10.77,24.44,24.44,0,0,1-7.63,8.4q-5.15,3.66-14.34,5.77-11.06,2.55-17.37,1.32A24.69,24.69,0,0,1,382,101.6,21.77,21.77,0,0,1,375.6,94q-3.07-6.28-6.06-19.26Zm-65,69.59q5.48,12.3,14,16.12a20.27,20.27,0,0,0,17.26-.09,20.06,20.06,0,0,0,11.55-12.7q2.79-8.79-2.81-21.39T321.28,68.94q-8.19-3.69-17.23.34T292.21,82Q289.46,90.64,295,103.16Zm-14.85,7.2q-4.94-11.08-5-20.06a37.7,37.7,0,0,1,2.33-12.94A31,31,0,0,1,284,66.67a43.32,43.32,0,0,1,14.34-9.82q16-7.13,30-1.47t21.91,23.34q7.82,17.56,2.68,31.71t-21.08,21.25q-16.17,7.2-30.09,1.6T280.17,110.35Zm-60.36,35.27,9.58-7q9.32-6.77,11.09-9.24a8.69,8.69,0,0,0,1.66-5.36A10.42,10.42,0,0,0,240,118.3a9.52,9.52,0,0,0-5.53-4,9.82,9.82,0,0,0-6.72,1q-1.71.94-9.61,6.66L208,129.35Zm13.94,46.45-46.62-64.16,27.28-19.82q10.28-7.47,16.2-9.12a18.23,18.23,0,0,1,11.93.71,22.89,22.89,0,0,1,10.14,8.08c3.49,4.81,5,9.83,4.43,15s-3.36,10.24-8.4,15.14a37.55,37.55,0,0,1,10.87.34q4.86,1,14.93,5.06l16.94,6.82L276,161.41l-19.52-7.16c-7-2.57-11.51-4.06-13.68-4.47a12.42,12.42,0,0,0-5.84.16,26.63,26.63,0,0,0-7.05,4l-2.61,1.9,19.46,26.78Zm-56.44,16-10.09-8.77,22.64-26,23.84,20.73q.37,7-3.09,16.64a53.29,53.29,0,0,1-9.9,17q-8.16,9.38-18.16,13a33.25,33.25,0,0,1-20.39.69,48.29,48.29,0,0,1-19-10.35,45.79,45.79,0,0,1-13.22-18.37,35,35,0,0,1-1.15-21.16q2-8.35,9.47-16.92,9.69-11.14,19.8-13.35A28,28,0,0,1,178,164.28l-8.18,13.95a16.88,16.88,0,0,0-11.11-1.29,19,19,0,0,0-10.12,6.49q-6.89,7.92-5.93,17c.64,6,4.26,11.9,10.85,17.63q10.64,9.25,20.1,9.16t16.1-7.78a27.77,27.77,0,0,0,5.14-8.92,34.85,34.85,0,0,0,2.09-9.69l-7.59-6.6ZM96.34,320l18.72,9.95,7-13.08c2.71-5.1,4.3-8.4,4.73-9.93a9.94,9.94,0,0,0-.06-6.62,9.78,9.78,0,0,0-4.89-5.15,10.39,10.39,0,0,0-6.16-1.31,9.85,9.85,0,0,0-5.56,2.71c-1.69,1.57-4.24,5.58-7.66,12ZM68.49,305.15l16.19,8.61,4.93-9.26q4.39-8.26,5.22-10.4a10.54,10.54,0,0,0,.54-7,8.38,8.38,0,0,0-4.38-5,8.73,8.73,0,0,0-6.23-1,9.21,9.21,0,0,0-5.28,4q-1.36,2-6.67,12Zm-19.18,8,14.88-28a89.71,89.71,0,0,1,7.3-12,20.52,20.52,0,0,1,6.77-5.77A20.23,20.23,0,0,1,87,265a17.91,17.91,0,0,1,9.33,2.2,18.76,18.76,0,0,1,10,17.91,20.89,20.89,0,0,1,11.57-6.46,19.11,19.11,0,0,1,12.39,2.18,23.55,23.55,0,0,1,8.11,7.16,21.26,21.26,0,0,1,4,9.9,22.86,22.86,0,0,1-1.72,11.26q-1.51,3.72-8.6,17.31l-12.67,23.83Zm12.63,100q13.12,3,21.3-1.47A20.28,20.28,0,0,0,93.56,397.8a20.06,20.06,0,0,0-3.19-16.86Q85,373.42,71.59,370.31t-21.17,1.23q-7.88,4.32-10.1,14t3,17.09Q48.6,410,61.94,413.11ZM58.75,429.3q-11.82-2.73-19-8.1a37.69,37.69,0,0,1-8.94-9.65A31.09,31.09,0,0,1,26.16,400a43.35,43.35,0,0,1,.79-17.37q3.95-17.08,16.91-24.88t31.82-3.46q18.73,4.32,26.94,16.95t4.29,29.62q-4,17.25-16.84,25T58.75,429.3Zm-6,76.13q13.45.47,20.62-5.51a20.28,20.28,0,0,0,7.49-15.55,20.07,20.07,0,0,0-6.35-15.95q-6.68-6.36-20.45-6.85-13.62-.48-20.55,5.25t-7.25,15.64q-.35,9.91,6.23,16.2T52.71,505.43Zm0,16.5q-12.12-.43-20.21-4.33a37.69,37.69,0,0,1-10.61-7.76,31.09,31.09,0,0,1-6.77-10.49,43.31,43.31,0,0,1-2.54-17.2q.61-17.52,11.85-27.65T55,445q19.21.67,29.68,11.49t9.86,28.26q-.62,17.69-11.76,27.75T52.66,521.93Zm24.42,36.19a23.89,23.89,0,0,0-9.39-3.2,41.52,41.52,0,0,0-11.87.33q-13.6,2.15-19.34,9.19t-4.23,16.71c1,6.46,4.09,11.32,9.21,14.62s12.19,4.24,21.22,2.81,15.68-4.54,19.58-9.27A19.63,19.63,0,0,0,86.68,573a18.87,18.87,0,0,0-2.16-6.3,47.45,47.45,0,0,0-3.38,10.55l-9.73-3A54.12,54.12,0,0,1,77.08,558.12ZM84,544a51.66,51.66,0,0,0,4.62-13.71l12.1,4a36.9,36.9,0,0,1-1.83,7.47q-.26.83-5.28,11.62a42.7,42.7,0,0,1,6.05,16.52q2.86,18.06-6.15,30t-28.23,15q-19.21,3-31.48-5.52T18.72,583.18Q16,565.78,25,553.88t28.24-14.94a52.36,52.36,0,0,1,18.29,0A38.15,38.15,0,0,1,84,544Zm4.73,109.26L65.15,674l31.32-.55Zm18.72-38.78,6.25,16.28L99.34,643.66l11.36,29.6,19.17-.36L136,688.76l-85.11-.42-6.07-15.81Zm48.1,103-28.31,17.69-23.55,49-10-15.93,16.71-32.46-36.29,1.12-9.78-15.64,54.49.33,28.22-17.63Z"/><polygon class="cls-2" points="164.21 806.92 181.98 815.98 196.08 801.87 192.97 821.57 210.74 830.63 191.04 833.75 187.91 853.46 178.86 835.68 159.16 838.8 173.26 824.7 164.21 806.92"/><polygon class="cls-2" points="837.19 806.92 819.42 815.98 805.31 801.87 808.43 821.57 790.66 830.63 810.36 833.75 813.48 853.46 822.54 835.68 842.24 838.8 828.14 824.7 837.19 806.92"/></svg>