<svg id="Layer_1" data-name="Layer 1" xmlns="http://www.w3.org/2000/svg" viewBox="0 0 811.36 1000"><defs><style>.cls-1,.cls-3{fill:#008641;}.cls-1,.cls-2{fill-rule:evenodd;}.cls-2,.cls-4{fill:#f68c1f;}</style></defs><title>yg-logo-color</title><path class="cls-1" d="M675.73,20.33C610.17,52.65,566.52,102.61,530.59,163.1A795.07,795.07,0,0,0,471.07,287.3c-31.05,82-52.44,175.62-64.12,277.94-17.58-189.62-55.31-290.09-186-327.58,84.42,7,147.61,40.19,185.19,105.14C447.35,181.69,568.38,33.43,675.73,20.33"/><path class="cls-2" d="M406.34,565.62c195.47,0,358.07,53.1,385.34,121.85-61.21-54.29-210.4-92.77-384-92.77-177.5,0-329.49,40.23-388,96.45C42.5,620.63,207.39,565.62,406.34,565.62"/><path class="cls-3" d="M699,752.12q-9.81-12.41-27.9-12.41-19.62,0-26.19,12.41h-.46v-39.4H618.43V824.87h26.06V815.1H645q8.11,12.25,25.88,12.25,18.38,0,28.36-12.72,9-11.64,9-31.49Q708.24,763.59,699,752.12ZM662.79,807.8q-18.3,0-18.3-24,0-24.51,18.3-24.51t18.3,24.36Q681.1,807.8,662.79,807.8Z"/><path class="cls-3" d="M560.41,739.4q-46.23,0-46.22,43.59,0,44.36,46.22,44.36,45.76,0,45.76-44.05Q606.17,739.4,560.41,739.4Zm0,69.81q-18.77,0-18.77-26.22,0-25.44,18.77-25.44,18.3,0,18.3,25.75Q578.72,809.2,560.41,809.2Z"/><path class="cls-3" d="M460.36,739.4q-46.22,0-46.22,43.59,0,44.36,46.22,44.36,45.76,0,45.76-44.05Q506.12,739.4,460.36,739.4Zm0,69.81q-18.77,0-18.77-26.22,0-25.44,18.77-25.44,18.3,0,18.3,25.75Q478.66,809.2,460.36,809.2Z"/><path class="cls-3" d="M375.84,741.72V752h-.46q-8-12.25-26.19-12.25-17.76,0-27.58,12.25-9.35,11.64-9.36,32,0,19.39,9,31,9.65,12.42,27.9,12.41,19.16,0,26.19-12.41h.46v39.71H401.9V741.72ZM357.7,807.8q-18.3,0-18.31-24.36,0-24.2,18.15-24.2,18.31,0,18.3,24Q375.84,807.81,357.7,807.8Z"/><path class="cls-3" d="M303.69,818.66c-.1.11-.77-.1-2-.62q-2.79-1.4-2.79-7.29V766.7q0-14.28-8.22-20.48-9-6.83-30.41-6.83-22.49,0-32.42,7-9.15,6.51-10.24,21.1h25.13q.78-11.94,16.45-11.95,14.11,0,14.11,9,0,4.5-2,6.44t-7.75,2.71q-1.24,0-22.18,2.48-28.08,3.26-28.08,25.75,0,25.44,30.56,25.44,20.48,0,30.09-11.79h.31l.32,2.17A8.28,8.28,0,0,0,279.8,826q1.71,0,13.26-.54l11.4-.55Q304.16,821.76,303.69,818.66ZM273.28,794c0,5.48-2.07,9.62-6.18,12.41q-5.39,3.72-14,3.72-12.37,0-12.36-10.39,0-9.31,10.5-11.17c4-.62,8.09-1.24,12.2-1.86,4.94-.83,8.22-1.71,9.88-2.64Z"/><polygon class="cls-1" points="212.17 714.11 172.15 785 172.15 824.87 143.29 824.87 143.29 785 103.12 714.11 135.85 714.11 157.57 760.18 157.72 760.18 179.75 714.11 212.17 714.11"/><path class="cls-4" d="M582.61,897.72q-7.83-8.83-19.11-8.84a23.19,23.19,0,0,0-11.77,3.06,23.5,23.5,0,0,0-8.4,7.92v-9.5h-16v89.31h17.11V947.06a33.41,33.41,0,0,0,9.17,7.32,22,22,0,0,0,9.73,2.12q11.26,0,19.19-9t7.9-25.18Q590.48,906.56,582.61,897.72ZM569.1,938.14a12.37,12.37,0,0,1-9.92,4.78,13.2,13.2,0,0,1-10.54-5.22c-2.89-3.45-4.32-8.83-4.32-16.09q0-9.52,4.14-14.35a13.11,13.11,0,0,1,10.42-4.84,12.63,12.63,0,0,1,10.1,4.93q4.08,4.93,4.1,15.12C573.07,929.72,571.74,935,569.1,938.14Z"/><path class="cls-2" d="M494.24,955v-9.69a25.27,25.27,0,0,1-9.29,8.17,26.3,26.3,0,0,1-12.17,3,23.91,23.91,0,0,1-11.69-2.84,17.07,17.07,0,0,1-7.51-8.05q-2.3-5.18-2.31-14.33V890.36h17.11v29.71q0,13.66,1,16.74a9.13,9.13,0,0,0,3.43,4.86,10.55,10.55,0,0,0,6.34,1.79,13.45,13.45,0,0,0,7.86-2.39,12.37,12.37,0,0,0,4.74-6q1.28-3.59,1.29-17.46V890.36h17.11V955Z"/><path class="cls-4" d="M428.87,898.43q-9.39-9.55-24.06-9.55a35.27,35.27,0,0,0-17.21,4.22,28.86,28.86,0,0,0-11.92,12.16,35.24,35.24,0,0,0-4.2,16.51c0,7.44,1.41,13.74,4.2,18.92A27.64,27.64,0,0,0,388,952.49a37.48,37.48,0,0,0,17,4q14.38,0,23.85-9.65t9.46-24.33Q438.24,908,428.87,898.43Zm-12.77,39a14.93,14.93,0,0,1-22.5,0c-3.06-3.41-4.57-8.31-4.57-14.74s1.52-11.33,4.57-14.74a14.93,14.93,0,0,1,22.5,0q4.55,5.12,4.56,14.62Q420.65,932.33,416.1,937.43Z"/><path class="cls-2" d="M343.28,955H326.16V890.36h15.89v9.19q4.09-6.52,7.34-8.59a13.61,13.61,0,0,1,7.4-2.08,21.66,21.66,0,0,1,11.27,3.24L362.76,907a15.06,15.06,0,0,0-8-2.79,9.42,9.42,0,0,0-6.1,2c-1.68,1.31-3,3.7-3.93,7.15s-1.43,10.69-1.43,21.69Z"/><path class="cls-2" d="M271.52,922.21V907.15h38.86v35.58q-5.68,5.49-16.43,9.67a60.06,60.06,0,0,1-21.77,4.16q-14,0-24.43-5.86a37.4,37.4,0,0,1-15.66-16.83,54.31,54.31,0,0,1-5.24-23.78,51.62,51.62,0,0,1,5.84-24.81,39.37,39.37,0,0,1,17.14-16.62q8.57-4.46,21.38-4.45,16.62,0,26,7t12,19.29l-17.9,3.35a19,19,0,0,0-7.11-10.39,21.43,21.43,0,0,0-13-3.81q-11.82,0-18.8,7.48t-7,22.25q0,15.88,7.07,23.85T271,941.15a31.18,31.18,0,0,0,11.37-2.23,39.27,39.27,0,0,0,9.77-5.38V922.21Z"/></svg>